<svg width="14" height="14" viewBox="0 0 14 14" fill="none" xmlns="http://www.w3.org/2000/svg">
<path d="M7.87491 3.79118C7.87491 4.02325 7.78272 4.24581 7.61863 4.4099C7.45453 4.574 7.23197 4.66618 6.99991 4.66618C6.76784 4.66618 6.54528 4.574 6.38119 4.4099C6.2171 4.24581 6.12491 4.02325 6.12491 3.79118C6.12491 3.55912 6.2171 3.33656 6.38119 3.17246C6.54528 3.00837 6.76784 2.91618 6.99991 2.91618C7.23197 2.91618 7.45453 3.00837 7.61863 3.17246C7.78272 3.33656 7.87491 3.55912 7.87491 3.79118ZM13.9999 11.0829V7.19785C14.0217 5.39969 13.3624 3.65987 12.1544 2.3277C10.9465 0.995528 9.27927 0.169638 7.48758 0.0158496C6.48754 -0.0541168 5.48414 0.0915311 4.54526 0.442939C3.60639 0.794346 2.75395 1.34332 2.04561 2.0527C1.33727 2.76209 0.789568 3.61535 0.439552 4.55474C0.089537 5.49413 -0.0546231 6.49775 0.0168257 7.49768C0.274659 11.2042 3.54774 13.9995 7.63166 13.9995H11.0832C11.8565 13.9986 12.5978 13.691 13.1446 13.1442C13.6914 12.5974 13.999 11.8561 13.9999 11.0829ZM7.40824 1.18018C8.90534 1.31262 10.2969 2.00671 11.3032 3.12301C12.3096 4.2393 12.8562 5.69508 12.8332 7.19785V11.0829C12.8332 11.547 12.6489 11.9921 12.3207 12.3203C11.9925 12.6485 11.5474 12.8329 11.0832 12.8329H7.63166C4.11183 12.8329 1.39991 10.5579 1.18116 7.41718C1.12373 6.61719 1.23189 5.81395 1.49889 5.05764C1.76589 4.30133 2.18598 3.60821 2.73293 3.02157C3.27987 2.43494 3.94192 1.9674 4.6777 1.64816C5.41348 1.32892 6.20719 1.16485 7.00924 1.16618C7.14166 1.16618 7.27524 1.17143 7.40824 1.18018ZM8.16657 10.4995V6.99952C8.16657 6.6901 8.04366 6.39335 7.82487 6.17456C7.60607 5.95577 7.30933 5.83285 6.99991 5.83285H6.41657C6.26187 5.83285 6.11349 5.89431 6.0041 6.00371C5.8947 6.1131 5.83324 6.26147 5.83324 6.41618C5.83324 6.57089 5.8947 6.71927 6.0041 6.82866C6.11349 6.93806 6.26187 6.99952 6.41657 6.99952H6.99991V10.4995C6.99991 10.6542 7.06137 10.8026 7.17076 10.912C7.28016 11.0214 7.42853 11.0829 7.58324 11.0829C7.73795 11.0829 7.88632 11.0214 7.99572 10.912C8.10512 10.8026 8.16657 10.6542 8.16657 10.4995Z" fill="black"/>
</svg>
