<svg width="11" height="12" viewBox="0 0 11 12" fill="none" xmlns="http://www.w3.org/2000/svg">
<path d="M8.63077 4.212V3.5C8.63077 2.57174 8.25635 1.6815 7.58987 1.02513C6.9234 0.368749 6.01946 0 5.07692 0C4.13438 0 3.23045 0.368749 2.56397 1.02513C1.8975 1.6815 1.52308 2.57174 1.52308 3.5V4.212C1.07091 4.40635 0.686041 4.72626 0.415546 5.13261C0.14505 5.53895 0.000649021 6.01412 0 6.5V9.5C0.000806143 10.1628 0.268509 10.7982 0.744389 11.2669C1.22027 11.7356 1.86547 11.9992 2.53846 12H7.61538C8.28838 11.9992 8.93358 11.7356 9.40946 11.2669C9.88534 10.7982 10.153 10.1628 10.1538 9.5V6.5C10.1532 6.01412 10.0088 5.53895 9.7383 5.13261C9.4678 4.72626 9.08294 4.40635 8.63077 4.212ZM2.53846 3.5C2.53846 2.83696 2.80591 2.20107 3.28196 1.73223C3.75801 1.26339 4.40368 1 5.07692 1C5.75016 1 6.39583 1.26339 6.87189 1.73223C7.34794 2.20107 7.61538 2.83696 7.61538 3.5V4H2.53846V3.5ZM9.13846 9.5C9.13846 9.89782 8.97799 10.2794 8.69236 10.5607C8.40673 10.842 8.01933 11 7.61538 11H2.53846C2.13452 11 1.74712 10.842 1.46148 10.5607C1.17585 10.2794 1.01538 9.89782 1.01538 9.5V6.5C1.01538 6.10218 1.17585 5.72064 1.46148 5.43934C1.74712 5.15804 2.13452 5 2.53846 5H7.61538C8.01933 5 8.40673 5.15804 8.69236 5.43934C8.97799 5.72064 9.13846 6.10218 9.13846 6.5V9.5Z" fill="black"/>
<path d="M5.07677 7.38464C4.95437 7.38464 4.83697 7.43327 4.75042 7.51983C4.66386 7.60638 4.61523 7.72377 4.61523 7.84618V8.76926C4.61523 8.89167 4.66386 9.00906 4.75042 9.09562C4.83697 9.18217 4.95437 9.2308 5.07677 9.2308C5.19918 9.2308 5.31657 9.18217 5.40313 9.09562C5.48968 9.00906 5.53831 8.89167 5.53831 8.76926V7.84618C5.53831 7.72377 5.48968 7.60638 5.40313 7.51983C5.31657 7.43327 5.19918 7.38464 5.07677 7.38464Z" fill="black"/>
</svg>
