<svg width="11" height="12" viewBox="0 0 11 12" fill="none" xmlns="http://www.w3.org/2000/svg">
<path d="M8.41805 1.0701L5.23735 0.02562C5.13321 -0.00854 5.02063 -0.00854 4.91649 0.02562L1.7358 1.0701C1.23009 1.23554 0.790181 1.55373 0.478574 1.97945C0.166967 2.40517 -0.000488234 2.91677 1.06926e-06 3.44157V6.00003C1.06926e-06 9.78147 4.67077 11.8699 4.8708 11.9569C4.93569 11.9853 5.00591 12 5.07692 12C5.14793 12 5.21815 11.9853 5.28305 11.9569C5.48308 11.8699 10.1538 9.78147 10.1538 6.00003V3.44157C10.1543 2.91677 9.98688 2.40517 9.67527 1.97945C9.36367 1.55373 8.92375 1.23554 8.41805 1.0701ZM9.13846 6.00003C9.13846 8.72749 5.93035 10.5165 5.07692 10.9445C4.22248 10.518 1.01539 8.73449 1.01539 6.00003V3.44157C1.01542 3.12671 1.11605 2.81985 1.30303 2.56445C1.49 2.30906 1.75385 2.11808 2.05717 2.01859L5.07692 1.0271L8.09668 2.01859C8.4 2.11808 8.66384 2.30906 8.85082 2.56445C9.0378 2.81985 9.13843 3.12671 9.13846 3.44157V6.00003Z" fill="black"/>
<path d="M6.58503 3.81649L4.62916 5.5951L3.58117 4.60416C3.53911 4.56246 3.48828 4.52882 3.43166 4.50521C3.37504 4.48161 3.31378 4.46851 3.2515 4.4667C3.18921 4.4649 3.12716 4.47441 3.06899 4.49468C3.01082 4.51496 2.95772 4.54558 2.9128 4.58475C2.86789 4.62393 2.83208 4.67085 2.80747 4.72277C2.78287 4.77468 2.76997 4.83054 2.76954 4.88705C2.76911 4.94355 2.78116 4.99956 2.80497 5.05178C2.82878 5.104 2.86388 5.15137 2.90819 5.1911L3.98514 6.20745C4.06546 6.28611 4.16253 6.34919 4.2705 6.39286C4.37846 6.43653 4.49507 6.4599 4.61328 6.46154H4.62869C4.74454 6.46188 4.85931 6.44136 4.96634 6.40116C5.07336 6.36096 5.17052 6.30188 5.25216 6.22735L7.24727 4.41825C7.29084 4.37882 7.32543 4.332 7.34904 4.28045C7.37266 4.2289 7.38485 4.17364 7.38492 4.11782C7.38498 4.062 7.37292 4.00672 7.34942 3.95512C7.32593 3.90353 7.29145 3.85664 7.24797 3.81713C7.20448 3.77761 7.15285 3.74625 7.096 3.72484C7.03915 3.70342 6.97821 3.69237 6.91665 3.69231C6.85509 3.69225 6.79412 3.70319 6.73722 3.72449C6.68032 3.7458 6.62861 3.77706 6.58503 3.81649Z" fill="black"/>
</svg>
