<svg width="16" height="20" viewBox="0 0 16 20" fill="none" xmlns="http://www.w3.org/2000/svg">
<path d="M14.2792 2.60168L12.8992 1.22002C12.5131 0.831943 12.0538 0.524299 11.548 0.314887C11.0422 0.105474 10.4999 -0.00154666 9.9525 1.68879e-05H4.66666C3.562 0.0013401 2.50296 0.440752 1.72185 1.22187C0.940735 2.00298 0.501323 3.06202 0.5 4.16668V15.8333C0.501323 16.938 0.940735 17.997 1.72185 18.7782C2.50296 19.5593 3.562 19.9987 4.66666 20H11.3333C12.438 19.9987 13.497 19.5593 14.2781 18.7782C15.0593 17.997 15.4987 16.938 15.5 15.8333V5.54751C15.5013 5.00017 15.3941 4.45799 15.1846 3.95234C14.975 3.4467 14.6673 2.98762 14.2792 2.60168ZM13.1008 3.78001C13.219 3.89778 13.3249 4.02735 13.4167 4.16668H11.3333V2.08335C11.4724 2.17612 11.6022 2.28217 11.7208 2.40002L13.1008 3.78001ZM13.8333 15.8333C13.8333 16.4964 13.5699 17.1323 13.1011 17.6011C12.6323 18.07 11.9964 18.3333 11.3333 18.3333H4.66666C4.00362 18.3333 3.36774 18.07 2.8989 17.6011C2.43006 17.1323 2.16667 16.4964 2.16667 15.8333V4.16668C2.16667 3.50364 2.43006 2.86776 2.8989 2.39892C3.36774 1.93007 4.00362 1.66668 4.66666 1.66668H9.66666V4.16668C9.66666 4.60871 9.84226 5.03263 10.1548 5.34519C10.4674 5.65775 10.8913 5.83335 11.3333 5.83335H13.8333V15.8333ZM11.3333 7.50001C11.5543 7.50001 11.7663 7.58781 11.9226 7.74409C12.0789 7.90037 12.1667 8.11233 12.1667 8.33335C12.1667 8.55436 12.0789 8.76632 11.9226 8.9226C11.7663 9.07888 11.5543 9.16668 11.3333 9.16668H4.66666C4.44565 9.16668 4.23369 9.07888 4.07741 8.9226C3.92113 8.76632 3.83333 8.55436 3.83333 8.33335C3.83333 8.11233 3.92113 7.90037 4.07741 7.74409C4.23369 7.58781 4.44565 7.50001 4.66666 7.50001H11.3333ZM12.1667 11.6667C12.1667 11.8877 12.0789 12.0997 11.9226 12.2559C11.7663 12.4122 11.5543 12.5 11.3333 12.5H4.66666C4.44565 12.5 4.23369 12.4122 4.07741 12.2559C3.92113 12.0997 3.83333 11.8877 3.83333 11.6667C3.83333 11.4457 3.92113 11.2337 4.07741 11.0774C4.23369 10.9211 4.44565 10.8333 4.66666 10.8333H11.3333C11.5543 10.8333 11.7663 10.9211 11.9226 11.0774C12.0789 11.2337 12.1667 11.4457 12.1667 11.6667ZM12.0067 14.5108C12.1362 14.6891 12.1899 14.9113 12.156 15.129C12.1221 15.3467 12.0034 15.5421 11.8258 15.6725C10.9815 16.2741 9.9815 16.6193 8.94583 16.6667C8.34073 16.6638 7.75401 16.4584 7.27916 16.0833C7.00583 15.8958 6.90166 15.8333 6.69583 15.8333C6.13869 15.9196 5.61301 16.1474 5.16916 16.495C4.99312 16.6205 4.7752 16.6727 4.56141 16.6405C4.34762 16.6083 4.15471 16.4943 4.0234 16.3226C3.8921 16.1508 3.83268 15.9347 3.8577 15.72C3.88273 15.5053 3.99022 15.3086 4.1575 15.1717C4.89181 14.6016 5.77356 14.253 6.69916 14.1667C7.25427 14.1755 7.79093 14.3674 8.22583 14.7125C8.42407 14.8908 8.6793 14.9927 8.94583 15C9.62722 14.949 10.2825 14.7162 10.8433 14.3258C11.0222 14.1962 11.2451 14.1429 11.4633 14.1776C11.6814 14.2123 11.8769 14.3321 12.0067 14.5108Z" fill="black"/>
</svg>
