<svg width="16" height="12" viewBox="0 0 16 12" fill="none" xmlns="http://www.w3.org/2000/svg">
<path d="M14.4358 0.928417L5.9661 9.39746C5.90916 9.45463 5.84149 9.5 5.76697 9.53095C5.69245 9.5619 5.61255 9.57783 5.53186 9.57783C5.45117 9.57783 5.37127 9.5619 5.29676 9.53095C5.22224 9.5 5.15457 9.45463 5.09762 9.39746L1.82229 6.11906C1.76534 6.06189 1.69767 6.01653 1.62315 5.98558C1.54863 5.95463 1.46874 5.93869 1.38805 5.93869C1.30736 5.93869 1.22746 5.95463 1.15294 5.98558C1.07842 6.01653 1.01075 6.06189 0.953807 6.11906C0.896638 6.17601 0.851276 6.24368 0.820323 6.3182C0.789371 6.39272 0.773437 6.47261 0.773438 6.5533C0.773437 6.63399 0.789371 6.71389 0.820323 6.78841C0.851276 6.86293 0.896638 6.9306 0.953807 6.98754L4.23037 10.2635C4.57601 10.6085 5.04442 10.8023 5.53278 10.8023C6.02114 10.8023 6.48955 10.6085 6.83519 10.2635L15.3042 1.79628C15.3613 1.73935 15.4066 1.67172 15.4375 1.59725C15.4684 1.52279 15.4843 1.44297 15.4843 1.36235C15.4843 1.28173 15.4684 1.20191 15.4375 1.12745C15.4066 1.05298 15.3613 0.98535 15.3042 0.928417C15.2473 0.871248 15.1796 0.825885 15.1051 0.794933C15.0306 0.76398 14.9507 0.748047 14.87 0.748047C14.7893 0.748047 14.7094 0.76398 14.6349 0.794933C14.5604 0.825885 14.4927 0.871248 14.4358 0.928417Z" fill="#04B983" stroke="#04B983"/>
</svg>
