<svg width="16" height="19" viewBox="0 0 16 19" fill="none" xmlns="http://www.w3.org/2000/svg">
<path d="M12.9347 1.69598L8.16365 0.12925C8.00744 0.0780103 7.83857 0.0780103 7.68236 0.12925L2.91132 1.69598C2.15275 1.94413 1.49289 2.42141 1.02548 3.05999C0.558067 3.69857 0.306885 4.46597 0.307619 5.25317V9.09086C0.307619 14.763 7.31377 17.8957 7.61382 18.0262C7.71116 18.0688 7.81649 18.0908 7.923 18.0908C8.02952 18.0908 8.13485 18.0688 8.23219 18.0262C8.53223 17.8957 15.5384 14.763 15.5384 9.09086V5.25317C15.5391 4.46597 15.2879 3.69857 14.8205 3.05999C14.3531 2.42141 13.6932 1.94413 12.9347 1.69598ZM14.0153 9.09086C14.0153 13.1821 9.20315 15.8655 7.923 16.5075C6.64133 15.8678 1.8307 13.1926 1.8307 9.09086V5.25317C1.83074 4.78089 1.98169 4.32059 2.26216 3.9375C2.54262 3.55441 2.93839 3.26795 3.39337 3.1187L7.923 1.63148L12.4526 3.1187C12.9076 3.26795 13.3034 3.55441 13.5838 3.9375C13.8643 4.32059 14.0153 4.78089 14.0153 5.25317V9.09086Z" fill="black"/>
<path d="M10.1847 5.81567L7.25087 8.48358L5.67888 6.99717C5.61579 6.93462 5.53954 6.88416 5.45461 6.84875C5.36969 6.81334 5.2778 6.7937 5.18438 6.79099C5.09095 6.78827 4.99787 6.80254 4.91061 6.83295C4.82336 6.86336 4.74371 6.9093 4.67634 6.96806C4.60896 7.02682 4.55524 7.09721 4.51834 7.17508C4.48143 7.25296 4.46209 7.33674 4.46144 7.4215C4.4608 7.50626 4.47887 7.59028 4.51459 7.6686C4.5503 7.74693 4.60295 7.81799 4.66942 7.87758L6.28484 9.4021C6.40531 9.5201 6.55093 9.61471 6.71287 9.68022C6.87482 9.74573 7.04974 9.78077 7.22705 9.78323H7.25017C7.42394 9.78375 7.59609 9.75297 7.75663 9.69267C7.91717 9.63237 8.06291 9.54375 8.18537 9.43196L11.178 6.71831C11.2434 6.65917 11.2953 6.58893 11.3307 6.51161C11.3661 6.43428 11.3844 6.35139 11.3845 6.26766C11.3846 6.18393 11.3665 6.101 11.3313 6.02361C11.296 5.94622 11.2443 5.87589 11.1791 5.81662C11.1139 5.75735 11.0364 5.71031 10.9511 5.67819C10.8659 5.64606 10.7744 5.62948 10.6821 5.62939C10.5898 5.62931 10.4983 5.64571 10.413 5.67767C10.3276 5.70963 10.25 5.75652 10.1847 5.81567Z" fill="black"/>
</svg>
