<svg width="16" height="19" viewBox="0 0 16 19" fill="none" xmlns="http://www.w3.org/2000/svg">
<path d="M13.0115 6.34991V5.27652C13.0115 3.8771 12.4471 2.53499 11.4423 1.54546C10.4375 0.555917 9.07479 0 7.65385 0C6.2329 0 4.87015 0.555917 3.86539 1.54546C2.86062 2.53499 2.29615 3.8771 2.29615 5.27652V6.34991C1.61447 6.64291 1.03426 7.1252 0.626467 7.73779C0.218675 8.35039 0.000978449 9.06674 0 9.79924V14.322C0.00121532 15.3212 0.404798 16.2791 1.12222 16.9857C1.83965 17.6922 2.81233 18.0897 3.82692 18.0909H11.4808C12.4954 18.0897 13.468 17.6922 14.1855 16.9857C14.9029 16.2791 15.3065 15.3212 15.3077 14.322V9.79924C15.3067 9.06674 15.089 8.35039 14.6812 7.73779C14.2734 7.1252 13.6932 6.64291 13.0115 6.34991ZM3.82692 5.27652C3.82692 4.27693 4.23012 3.31829 4.9478 2.61147C5.66549 1.90466 6.63888 1.50758 7.65385 1.50758C8.66881 1.50758 9.6422 1.90466 10.3599 2.61147C11.0776 3.31829 11.4808 4.27693 11.4808 5.27652V6.0303H3.82692V5.27652ZM13.7769 14.322C13.7769 14.9217 13.535 15.4969 13.1044 15.921C12.6738 16.3451 12.0897 16.5833 11.4808 16.5833H3.82692C3.21795 16.5833 2.63391 16.3451 2.2033 15.921C1.77268 15.4969 1.53077 14.9217 1.53077 14.322V9.79924C1.53077 9.19949 1.77268 8.6243 2.2033 8.20022C2.63391 7.77613 3.21795 7.53788 3.82692 7.53788H11.4808C12.0897 7.53788 12.6738 7.77613 13.1044 8.20022C13.535 8.6243 13.7769 9.19949 13.7769 9.79924V14.322Z" fill="black"/>
<path d="M7.65381 11.1328C7.46927 11.1328 7.29229 11.2061 7.1618 11.3366C7.03132 11.4671 6.95801 11.6441 6.95801 11.8286V13.2202C6.95801 13.4048 7.03132 13.5817 7.1618 13.7122C7.29229 13.8427 7.46927 13.916 7.65381 13.916C7.83835 13.916 8.01533 13.8427 8.14582 13.7122C8.27631 13.5817 8.34962 13.4048 8.34962 13.2202V11.8286C8.34962 11.6441 8.27631 11.4671 8.14582 11.3366C8.01533 11.2061 7.83835 11.1328 7.65381 11.1328Z" fill="black"/>
</svg>
