<svg width="31" height="31" viewBox="0 0 31 31" fill="none" xmlns="http://www.w3.org/2000/svg">
<circle cx="15.5" cy="15.5" r="15.5" fill="#F95556"/>
<path d="M21.6976 9.30243C21.5039 9.10878 21.2412 9 20.9673 9C20.6934 9 20.4307 9.10878 20.237 9.30243L15.5 14.0394L10.763 9.30243C10.5693 9.10878 10.3066 9 10.0327 9C9.75881 9 9.49613 9.10878 9.30243 9.30243C9.10878 9.49613 9 9.75881 9 10.0327C9 10.3066 9.10878 10.5693 9.30243 10.763L14.0394 15.5L9.30243 20.237C9.10878 20.4307 9 20.6934 9 20.9673C9 21.2412 9.10878 21.5039 9.30243 21.6976C9.49613 21.8912 9.75881 22 10.0327 22C10.3066 22 10.5693 21.8912 10.763 21.6976L15.5 16.9606L20.237 21.6976C20.4307 21.8912 20.6934 22 20.9673 22C21.2412 22 21.5039 21.8912 21.6976 21.6976C21.8912 21.5039 22 21.2412 22 20.9673C22 20.6934 21.8912 20.4307 21.6976 20.237L16.9606 15.5L21.6976 10.763C21.8912 10.5693 22 10.3066 22 10.0327C22 9.75881 21.8912 9.49613 21.6976 9.30243Z" fill="white"/>
</svg>
