<svg width="31" height="32" viewBox="0 0 31 32" fill="none" xmlns="http://www.w3.org/2000/svg">
<circle cx="15.5" cy="15.7114" r="15.5" fill="#04B983"/>
<path d="M22.0002 10.3908L13.9398 18.8142C13.8856 18.8711 13.8212 18.9162 13.7503 18.947C13.6794 18.9778 13.6033 18.9936 13.5265 18.9936C13.4497 18.9936 13.3737 18.9778 13.3028 18.947C13.2319 18.9162 13.1675 18.8711 13.1133 18.8142L9.99621 15.5535C9.94202 15.4966 9.87762 15.4515 9.8067 15.4207C9.73578 15.3899 9.65975 15.3741 9.58296 15.3741C9.50617 15.3741 9.43013 15.3899 9.35921 15.4207C9.2883 15.4515 9.22389 15.4966 9.1697 15.5535C9.11529 15.6101 9.07212 15.6774 9.04267 15.7515C9.01321 15.8257 8.99805 15.9051 8.99805 15.9854C8.99805 16.0656 9.01321 16.1451 9.04267 16.2192C9.07212 16.2933 9.11529 16.3606 9.1697 16.4173L12.2879 19.6756C12.6169 20.0187 13.0626 20.2114 13.5274 20.2114C13.9922 20.2114 14.4379 20.0187 14.7669 19.6756L22.8267 11.254C22.881 11.1974 22.9241 11.1301 22.9535 11.0561C22.9829 10.982 22.998 10.9026 22.998 10.8224C22.998 10.7422 22.9829 10.6628 22.9535 10.5888C22.9241 10.5147 22.881 10.4474 22.8267 10.3908C22.7725 10.334 22.7081 10.2888 22.6372 10.2581C22.5663 10.2273 22.4902 10.2114 22.4134 10.2114C22.3366 10.2114 22.2606 10.2273 22.1897 10.2581C22.1188 10.2888 22.0544 10.334 22.0002 10.3908Z" fill="white"/>
</svg>
