<svg width="28" height="28" viewBox="0 0 28 28" fill="none" xmlns="http://www.w3.org/2000/svg">
<path d="M27.9993 26.8334C27.9993 27.1428 27.8764 27.4395 27.6576 27.6583C27.4388 27.8771 27.1421 28 26.8327 28H1.16844C0.859048 28 0.562329 27.8771 0.343557 27.6583C0.124785 27.4395 0.00187995 27.1428 0.00187995 26.8334C0.00187995 26.524 0.124785 26.2273 0.343557 26.0085C0.562329 25.7897 0.859048 25.6668 1.16844 25.6668H26.8327C27.1421 25.6668 27.4388 25.7897 27.6576 26.0085C27.8764 26.2273 27.9993 26.524 27.9993 26.8334ZM0.341349 9.97847C0.0899811 9.51222 -0.0264737 8.98513 0.00505349 8.45636C0.0365806 7.9276 0.214842 7.41808 0.519832 6.985C1.01825 6.25368 1.68574 5.6534 2.46565 5.23511L11.216 0.68073C12.0761 0.233495 13.0312 0 14.0006 0C14.97 0 15.9251 0.233495 16.7852 0.68073L25.5343 5.23861C26.3143 5.6569 26.9817 6.25718 27.4802 6.9885C27.7852 7.42158 27.9634 7.9311 27.9949 8.45986C28.0265 8.98863 27.91 9.51572 27.6587 9.98197C27.388 10.4939 26.9821 10.9218 26.4852 11.219C25.9883 11.5162 25.4193 11.6714 24.8402 11.6677H24.4996V21.0004H25.6662C25.9756 21.0004 26.2723 21.1234 26.4911 21.3421C26.7098 21.5609 26.8327 21.8576 26.8327 22.167C26.8327 22.4764 26.7098 22.7732 26.4911 22.9919C26.2723 23.2107 25.9756 23.3336 25.6662 23.3336H2.335C2.02561 23.3336 1.72889 23.2107 1.51012 22.9919C1.29134 22.7732 1.16844 22.4764 1.16844 22.167C1.16844 21.8576 1.29134 21.5609 1.51012 21.3421C1.72889 21.1234 2.02561 21.0004 2.335 21.0004H3.50156V11.6677H3.16092C2.58133 11.6713 2.01187 11.5157 1.51466 11.2178C1.01745 10.9199 0.611592 10.4912 0.341349 9.97847ZM5.83467 21.0004H9.33435V11.6677H5.83467V21.0004ZM11.6675 11.6677V21.0004H16.3337V11.6677H11.6675ZM22.1665 11.6677H18.6668V21.0004H22.1665V11.6677ZM2.40849 8.89704C2.48168 9.03199 2.59061 9.1442 2.72332 9.22136C2.85604 9.29852 3.00743 9.33767 3.16092 9.33452H24.8402C24.9937 9.33767 25.1451 9.29852 25.2778 9.22136C25.4106 9.1442 25.5195 9.03199 25.5927 8.89704C25.646 8.80787 25.6718 8.70494 25.6668 8.60116C25.6618 8.49739 25.6263 8.3974 25.5647 8.31375C25.282 7.89367 24.9023 7.54792 24.4576 7.30581L15.7084 2.74793C15.1812 2.47428 14.5958 2.33143 14.0018 2.33143C13.4077 2.33143 12.8223 2.47428 12.2951 2.74793L3.54589 7.30581C3.10141 7.5487 2.72174 7.89477 2.43882 8.31491C2.3771 8.39822 2.3413 8.49787 2.3359 8.60141C2.33051 8.70494 2.35576 8.80778 2.40849 8.89704Z" fill="black"/>
</svg>
