<svg width="28" height="28" viewBox="0 0 28 28" fill="none" xmlns="http://www.w3.org/2000/svg">
<g clip-path="url(#clip0_65_44935)">
<path d="M18.6667 0H9.33333C7.78681 0.0018525 6.30415 0.617029 5.21059 1.71059C4.11703 2.80415 3.50185 4.28681 3.5 5.83333V26.8333C3.50016 27.0455 3.5582 27.2537 3.66786 27.4353C3.77752 27.617 3.93466 27.7653 4.12234 27.8643C4.31003 27.9633 4.52117 28.0093 4.73303 27.9972C4.94488 27.9851 5.14944 27.9155 5.32467 27.7958L7.78167 26.117L10.2387 27.7958C10.4328 27.9288 10.6626 27.9999 10.8978 27.9999C11.1331 27.9999 11.3629 27.9288 11.557 27.7958L14.007 26.117L16.457 27.7958C16.6512 27.929 16.8812 28.0003 17.1168 28.0003C17.3523 28.0003 17.5823 27.929 17.7765 27.7958L20.2265 26.1182L22.6765 27.7947C22.8516 27.914 23.056 27.9833 23.2675 27.9953C23.4791 28.0072 23.69 27.9613 23.8774 27.8625C24.0649 27.7637 24.2219 27.6157 24.3316 27.4343C24.4413 27.253 24.4995 27.0452 24.5 26.8333V5.83333C24.4981 4.28681 23.883 2.80415 22.7894 1.71059C21.6959 0.617029 20.2132 0.0018525 18.6667 0V0ZM22.1667 24.6167L20.8833 23.7393C20.689 23.6059 20.4588 23.5345 20.223 23.5345C19.9872 23.5345 19.757 23.6059 19.5627 23.7393L17.1127 25.4182L14.6627 23.7393C14.4684 23.6062 14.2384 23.5349 14.0029 23.5349C13.7674 23.5349 13.5374 23.6062 13.3432 23.7393L10.8932 25.4182L8.44317 23.7393C8.24917 23.6067 8.01961 23.5357 7.78458 23.5357C7.54955 23.5357 7.32 23.6067 7.126 23.7393L5.83333 24.6167V5.83333C5.83333 4.90508 6.20208 4.01484 6.85846 3.35846C7.51484 2.70208 8.40508 2.33333 9.33333 2.33333H18.6667C19.5949 2.33333 20.4852 2.70208 21.1415 3.35846C21.7979 4.01484 22.1667 4.90508 22.1667 5.83333V24.6167Z" fill="black"/>
<path d="M18.6667 9.33325H9.33341C8.68908 9.33325 8.16675 9.85559 8.16675 10.4999C8.16675 11.1442 8.68908 11.6666 9.33341 11.6666H18.6667C19.3111 11.6666 19.8334 11.1442 19.8334 10.4999C19.8334 9.85559 19.3111 9.33325 18.6667 9.33325Z" fill="black"/>
<path d="M16.3334 14H9.33341C8.68908 14 8.16675 14.5223 8.16675 15.1667C8.16675 15.811 8.68908 16.3333 9.33341 16.3333H16.3334C16.9777 16.3333 17.5001 15.811 17.5001 15.1667C17.5001 14.5223 16.9777 14 16.3334 14Z" fill="black"/>
</g>
<defs>
<clipPath id="clip0_65_44935">
<rect width="28" height="28" fill="white"/>
</clipPath>
</defs>
</svg>
