<svg width="20" height="20" viewBox="0 0 20 20" fill="none" xmlns="http://www.w3.org/2000/svg">
<path d="M19.9999 19.1667C19.9999 19.3877 19.9121 19.5997 19.7558 19.7559C19.5995 19.9122 19.3875 20 19.1665 20H0.833211C0.612197 20 0.400236 19.9122 0.243956 19.7559C0.0876754 19.5997 -0.000121897 19.3877 -0.000121897 19.1667C-0.000121897 18.9457 0.0876754 18.7337 0.243956 18.5774C0.400236 18.4212 0.612197 18.3334 0.833211 18.3334H19.1665C19.3875 18.3334 19.5995 18.4212 19.7558 18.5774C19.9121 18.7337 19.9999 18.9457 19.9999 19.1667ZM0.242378 7.12671C0.0628133 6.79364 -0.0203763 6.41713 0.00214512 6.03941C0.0246666 5.6617 0.152008 5.29774 0.369878 4.98837C0.725926 4.46597 1.20275 4.03718 1.75988 3.73838L8.0107 0.485045C8.62509 0.165572 9.30738 -0.0012207 9.99987 -0.0012207C10.6924 -0.0012207 11.3746 0.165572 11.989 0.485045L18.239 3.74088C18.7962 4.03968 19.273 4.46847 19.629 4.99087C19.8469 5.30024 19.9742 5.6642 19.9968 6.04191C20.0193 6.41963 19.9361 6.79614 19.7565 7.12921C19.5632 7.4949 19.2733 7.80054 18.9183 8.01286C18.5633 8.22518 18.1568 8.33604 17.7432 8.33337H17.4999V15H18.3332C18.5542 15 18.7662 15.0878 18.9224 15.2441C19.0787 15.4004 19.1665 15.6123 19.1665 15.8334C19.1665 16.0544 19.0787 16.2663 18.9224 16.4226C18.7662 16.5789 18.5542 16.6667 18.3332 16.6667H1.66654C1.44553 16.6667 1.23357 16.5789 1.07729 16.4226C0.921008 16.2663 0.833211 16.0544 0.833211 15.8334C0.833211 15.6123 0.921008 15.4004 1.07729 15.2441C1.23357 15.0878 1.44553 15 1.66654 15H2.49988V8.33337H2.25654C1.84251 8.33596 1.43571 8.22479 1.08053 8.01201C0.725354 7.79922 0.435427 7.49299 0.242378 7.12671ZM4.16654 15H6.66654V8.33337H4.16654V15ZM8.3332 8.33337V15H11.6665V8.33337H8.3332ZM15.8332 8.33337H13.3332V15H15.8332V8.33337ZM1.71904 6.35421C1.77133 6.4506 1.84914 6.53075 1.94394 6.58588C2.03875 6.641 2.1469 6.66896 2.25654 6.66671H17.7432C17.8528 6.66896 17.961 6.641 18.0558 6.58588C18.1506 6.53075 18.2284 6.4506 18.2807 6.35421C18.3188 6.29051 18.3372 6.21698 18.3336 6.14285C18.3301 6.06872 18.3047 5.9973 18.2607 5.93754C18.0588 5.63747 17.7875 5.39049 17.4699 5.21754L11.2199 1.96171C10.8432 1.76623 10.4251 1.66419 10.0007 1.66419C9.57634 1.66419 9.15819 1.76623 8.78154 1.96171L2.53154 5.21754C2.21403 5.39105 1.94282 5.63825 1.74071 5.93837C1.69662 5.99788 1.67104 6.06906 1.66719 6.14302C1.66334 6.21698 1.68137 6.29044 1.71904 6.35421Z" fill="black"/>
</svg>
