<svg width="48" height="48" viewBox="0 0 48 48" fill="none" xmlns="http://www.w3.org/2000/svg">
<g filter="url(#filter0_d_47_34852)">
<circle cx="24" cy="20" r="14" fill="white"/>
</g>
<path d="M29.2494 15.3333H27.441C27.3056 14.675 26.9474 14.0835 26.4267 13.6584C25.9061 13.2334 25.2548 13.0008 24.5827 13H23.416C22.7439 13.0008 22.0926 13.2334 21.572 13.6584C21.0513 14.0835 20.6931 14.675 20.5577 15.3333H18.7493C18.5946 15.3333 18.4463 15.3948 18.3369 15.5042C18.2275 15.6136 18.166 15.762 18.166 15.9167C18.166 16.0714 18.2275 16.2197 18.3369 16.3291C18.4463 16.4385 18.5946 16.5 18.7493 16.5H19.3327V24.0833C19.3336 24.8566 19.6412 25.5979 20.188 26.1447C20.7348 26.6915 21.4761 26.9991 22.2494 27H25.7494C26.5226 26.9991 27.2639 26.6915 27.8107 26.1447C28.3575 25.5979 28.6651 24.8566 28.666 24.0833V16.5H29.2494C29.4041 16.5 29.5524 16.4385 29.6618 16.3291C29.7712 16.2197 29.8327 16.0714 29.8327 15.9167C29.8327 15.762 29.7712 15.6136 29.6618 15.5042C29.5524 15.3948 29.4041 15.3333 29.2494 15.3333ZM23.416 14.1667H24.5827C24.9445 14.1671 25.2973 14.2795 25.5928 14.4883C25.8882 14.6972 26.1118 14.9924 26.2329 15.3333H21.7658C21.8869 14.9924 22.1105 14.6972 22.4059 14.4883C22.7014 14.2795 23.0542 14.1671 23.416 14.1667ZM27.4994 24.0833C27.4994 24.5475 27.315 24.9926 26.9868 25.3208C26.6586 25.649 26.2135 25.8333 25.7494 25.8333H22.2494C21.7852 25.8333 21.3401 25.649 21.0119 25.3208C20.6837 24.9926 20.4993 24.5475 20.4993 24.0833V16.5H27.4994V24.0833Z" fill="#1F1F2D"/>
<path d="M22.8333 23.4997C22.988 23.4997 23.1364 23.4382 23.2458 23.3288C23.3552 23.2194 23.4167 23.0711 23.4167 22.9163V19.4163C23.4167 19.2616 23.3552 19.1133 23.2458 19.0039C23.1364 18.8945 22.988 18.833 22.8333 18.833C22.6786 18.833 22.5303 18.8945 22.4209 19.0039C22.3115 19.1133 22.25 19.2616 22.25 19.4163V22.9163C22.25 23.0711 22.3115 23.2194 22.4209 23.3288C22.5303 23.4382 22.6786 23.4997 22.8333 23.4997Z" fill="#1F1F2D"/>
<path d="M25.1673 23.4997C25.322 23.4997 25.4704 23.4382 25.5798 23.3288C25.6892 23.2194 25.7507 23.0711 25.7507 22.9163V19.4163C25.7507 19.2616 25.6892 19.1133 25.5798 19.0039C25.4704 18.8945 25.322 18.833 25.1673 18.833C25.0126 18.833 24.8642 18.8945 24.7548 19.0039C24.6454 19.1133 24.584 19.2616 24.584 19.4163V22.9163C24.584 23.0711 24.6454 23.2194 24.7548 23.3288C24.8642 23.4382 25.0126 23.4997 25.1673 23.4997Z" fill="#1F1F2D"/>
<defs>
<filter id="filter0_d_47_34852" x="0" y="0" width="48" height="48" filterUnits="userSpaceOnUse" color-interpolation-filters="sRGB">
<feFlood flood-opacity="0" result="BackgroundImageFix"/>
<feColorMatrix in="SourceAlpha" type="matrix" values="0 0 0 0 0 0 0 0 0 0 0 0 0 0 0 0 0 0 127 0" result="hardAlpha"/>
<feOffset dy="4"/>
<feGaussianBlur stdDeviation="5"/>
<feComposite in2="hardAlpha" operator="out"/>
<feColorMatrix type="matrix" values="0 0 0 0 0.579167 0 0 0 0 0.57434 0 0 0 0 0.57434 0 0 0 0.25 0"/>
<feBlend mode="normal" in2="BackgroundImageFix" result="effect1_dropShadow_47_34852"/>
<feBlend mode="normal" in="SourceGraphic" in2="effect1_dropShadow_47_34852" result="shape"/>
</filter>
</defs>
</svg>
