<svg xmlns="http://www.w3.org/2000/svg" viewBox="0 0 155.62 442.92"><defs><style>.cls-1,.cls-2,.cls-4,.cls-6,.cls-8{fill:#fff;}.cls-1,.cls-2{stroke:#231f20;}.cls-1,.cls-2,.cls-4,.cls-6,.cls-9{stroke-miterlimit:10;}.cls-2{stroke-width:0.62px;}.cls-3{fill:#000019;}.cls-4,.cls-6{stroke:#000;}.cls-5{fill:#191f2a;}.cls-6{stroke-width:0.95px;}.cls-7{fill:#19120a;}.cls-9{fill:#d7e9ff;stroke:#181a1f;}.cls-10{fill:#231f20;}</style></defs><g id="Layer_2" data-name="Layer 2"><g id="_Layer_copy" data-name="&lt;Layer&gt; copy"><g id="man"><path class="cls-1" d="M100.34,92.76s10-2.35,18,9.89c16.7,25.39,25,84.08,25.8,92.71,0,0,4.56,17.76,3.91,48l-7.52.94s-32.39-108.11-33-119.78S100.34,92.76,100.34,92.76Z"/><path class="cls-2" d="M105.36,88.71c2.77.48,8.87,3.07,9.74,6.07-.87-.11-6.9-1.34-7.77-1.44"/><path class="cls-3" d="M117.1,428.11l5.63,13.37,32.45-4.18S162.56,418.33,117.1,428.11Z"/><path class="cls-3" d="M57.9,428.94l1.43,14H94.49S104.23,425,57.9,428.94Z"/><path class="cls-4" d="M133,426.17l.19-100.3c-22.75,3.67-14.2,4.74-37.21,5,4.83,31.31,8.25,65.55,22.38,98.92Z"/><path class="cls-4" d="M56.34,330.62c-.16,27.47-.38,59,2,98.5l17.73-.55,22.82-95C80.37,332.4,74.23,329.63,56.34,330.62Z"/><path class="cls-3" d="M135.44,325.87,131.57,228l-62.08,4.58s-3.27,43.4,5.85,98.6C95.78,332.79,116.22,333.35,135.44,325.87Z"/><path class="cls-5" d="M127.35,249.49l.38-19.18L58.06,229.1s-6.29,32.14-6.67,102c17.89-1,36.57,1.91,55.11,3.07l10.29-72.8C117.56,256.41,127.35,249.49,127.35,249.49Z"/><path class="cls-4" d="M110.79,99l-30.3,15-4-20.31a88.25,88.25,0,0,0,4-20,106.81,106.81,0,0,0,.21-17.88l25,12.8a47,47,0,0,0-1,5.51,45.75,45.75,0,0,0-.19,9.71C105,89.14,108.27,94.52,110.79,99Z"/><path class="cls-6" d="M80.48,73.39c-2.87-3.42-4.81-8-5.08-14.14C74.17,31.31,88.89,13.5,98.91,13.88c20,.78,23.42,9.72,25.89,19S129.1,81.33,112.56,83c0,0-11.68,1.36-22-2.65"/><path class="cls-7" d="M84.07,76.24s-3.39-10-3-15.57c0,0-8-10.13-3.32-12.64s7.13,3.49,8.19,2.31,2.72-21.09,8.34-20.46,18.6,4.5,27.74,1.14c11.31-4.15-5.19-40.52-42.69-28.65S49.34,55.42,84.07,76.24Z"/><path class="cls-7" d="M60.87,18.72S59.17,13.65,61,10c0,0,.09,5,2,7.2S60.87,18.72,60.87,18.72Z"/><path class="cls-7" d="M61.65,15.18s-4.64-.53-6.83,3a6,6,0,0,1,6.57.13Z"/><path class="cls-2" d="M78.32,89.28c1.73,1,4.92,3.76,9.52,5.22,6.16,2,11.67,2,16.64-.84"/><path class="cls-1" d="M107.9,93.32a54.33,54.33,0,0,1,3.85,7.08,267,267,0,0,1,17.51,52.78c6.06,27.17,7.34,35,5.74,55-.55,6.86-2.53,20.74-6.76,24-.45.36-10.06,4.37-10.06,4.37-14.19,2-14.34,2.79-29.83,1.45-11.79-1-14-2.16-25.15-7-1.49-.64-4.91-2.41-4.83-4s.23-4.31.45-7.53c.8-11.19,2.18-30.44.83-52.64-.24-4.13-.32-8.23-.38-12.27-.5-29.75,4-52.76,16.77-65.34,1.42-1.4,1.88-2.35,2.53-3"/><path class="cls-3" d="M76.57,91a45.42,45.42,0,0,0-41.86,6.34c-21.28,15.35-44,113-30.81,123.56,13.64,11,36.14,12.87,45.17,10.34,8.34-2.33,7.81-5.76,7.81-5.76S72.79,157.92,76.57,91Z"/><path class="cls-8" d="M108.13,67s.73,2.92,8,2.38c0,0,6.12-.45,5.9-3.67C122.06,65.75,116.09,63.53,108.13,67Z"/><path class="cls-1" d="M82.7,125.05A54.38,54.38,0,0,1,74,143.21c-6.11,8.61-10.78,19.55-10.9,20.7s21.27.18,21.27.18L88.87,177c-4.81,5.09-18.12,9.34-31.26,10.52-8.46.76-16.85.25-22.86-2.1-15.33-6,14.45-61.36,21.44-73C69.26,90.55,76.57,91,76.57,91"/><path class="cls-3" d="M58.46,222s78.39-52.27,27.3-121.91c-2.24-3.06-5.09-9.33-8.46-10.93a23.34,23.34,0,0,0-5.72,2c3.37.85,8.7,10.87,12.73,19.75,10,22,24,49.39-26.3,99.6Z"/><path class="cls-3" d="M118,103.43c-2.69-3.83-7.08-9.16-9.36-8.91,1.39,1.77,9.48,13.31,13.41,23.24,4.38,11.06,4.14,12.06,6,19.63,1.62,9.3,6.15,36.11,6.7,43.81C138,171.6,134,126.16,118,103.43Z"/><path class="cls-4" d="M107.63,154.2c-.68,1.78-1.78,1.14-3.47,7.28s-3.54,7.72-9.24,11l-4.81,1.31s-12.8-8.18-10.27-8.37c1-.07,9,.23,9,.23s.13-.5.42-1.33l-.71-1.52s1.56-7.28,1.22-9,3-.42,3,3.11a2.42,2.42,0,0,1,0,.47c2.41-3.53,6.07-6.86,11.3-6.86C104,150.49,109.23,150,107.63,154.2Z"/><path class="cls-9" d="M88.58,162.74l-8.72,1.91,1.59,10.58h6.47l-3.7,5.27,1.66.7,9.05-8.77S90.09,167.38,88.58,162.74Z"/><path class="cls-2" d="M107.33,93.34C97.46,92,87.77,90,78.57,86.21c-.93,1.55-.28.64-1.31,3.34a1.51,1.51,0,0,0,.23,1.36,2.2,2.2,0,0,0,.83.57,87,87,0,0,0,14.16,6.25c5.72,1.89,17.35,2.69,17.35,2.69S108.13,95,107.33,93.34Z"/><path class="cls-4" d="M150.65,250.42l-2.85-5.9s-8.39.68-8.46.86l4.14,18.6s4.08-1.72,5.31-3.78l2.1-5.58C151.42,253.31,150.65,250.42,150.65,250.42Z"/><polygon class="cls-9" points="147.8 244.53 148.74 238.53 139.05 239.71 140.28 245.47 147.8 244.53"/><path class="cls-10" d="M120.88,119.44c.44,1.17.2,2.34-.52,2.61s-1.68-.45-2.11-1.62-.2-2.34.52-2.61S120.45,118.27,120.88,119.44Z"/><path class="cls-10" d="M127.1,137.94c.43,1.16.2,2.33-.53,2.6s-1.68-.45-2.11-1.62-.2-2.34.53-2.61S126.66,136.77,127.1,137.94Z"/><path class="cls-10" d="M132.08,159.09c.3,1.21-.07,2.34-.82,2.53s-1.61-.65-1.91-1.86.07-2.35.83-2.53S131.79,157.87,132.08,159.09Z"/><path class="cls-10" d="M136.84,184.56c.09,1.25-.46,2.3-1.24,2.36s-1.48-.91-1.57-2.15.47-2.3,1.24-2.36S136.75,183.32,136.84,184.56Z"/><path class="cls-10" d="M135.89,214.12c-.07,1.24-.77,2.21-1.54,2.16s-1.34-1.09-1.27-2.34.78-2.21,1.55-2.17S136,212.87,135.89,214.12Z"/></g></g></g></svg>