<svg xmlns="http://www.w3.org/2000/svg" viewBox="0 0 221.15 603.98"><defs><style>.cls-1,.cls-10,.cls-2,.cls-4,.cls-8,.cls-9{fill:#fff;}.cls-1,.cls-10,.cls-11,.cls-2,.cls-8,.cls-9{stroke:#231f20;stroke-miterlimit:10;}.cls-2{stroke-width:0.86px;}.cls-3{fill:#000019;}.cls-5{fill:#c93b38;}.cls-6{fill:#191f2a;}.cls-7{fill:#22365b;}.cls-8{stroke-width:0.91px;}.cls-11,.cls-9{stroke-width:0.84px;}.cls-10{stroke-width:0.97px;}.cls-11{fill:none;}</style></defs><g id="Layer_2" data-name="Layer 2"><g id="_Layer_copy" data-name="&lt;Layer&gt; copy"><path class="cls-1" d="M135.11,101.43a16.73,16.73,0,0,1,4.72,3.32c-1.67.31-3.54.41-4.4,1.87-.63-.54-.62-.36-1.23-.44"/><path class="cls-2" d="M216.53,263c-21.82-23.64-41.94-72.54-59.61-111.22l-33.35,15.47c21.69,52.54,71.1,107.82,71.1,107.82Z"/><polygon class="cls-3" points="216.99 267.83 188.99 279.06 168.96 229.14 200.44 216.51 220.52 264.85 216.99 267.83"/><path class="cls-4" d="M201.05,218l18.66,46.52c-3.14,2.09-3.23,2.13-7,2.79L194.1,220.82C197.81,220.16,197.91,220.12,201.05,218Z"/><path class="cls-3" d="M219.71,264.55c-3.14,2.09-3.23,2.13-7,2.79L193.2,218.58l-1,.4,20,49.9c4.45-.65,5.25-1,8.91-3.58l-19.73-49.19-1,.4Z"/><path class="cls-5" d="M193.44,275.09A27.54,27.54,0,0,1,183,279.27l-19.56-48.76-1,.4,20,49.9a28.52,28.52,0,0,0,12.38-5l-20-49.9-1,.39Z"/><rect class="cls-3" x="171.34" y="223.01" width="32.04" height="53.77" transform="translate(-79.58 87.73) rotate(-21.86)"/><rect class="cls-3" x="174.31" y="227.48" width="23.7" height="45.78" transform="translate(-79.84 87.33) rotate(-21.86)"/><polygon class="cls-6" points="205.45 269.86 175.71 281.79 155.68 231.87 190.63 217.84 210.71 266.18 205.45 269.86"/><path class="cls-2" d="M191.24,219.37l18.66,46.52a27.52,27.52,0,0,1-10.42,4.18l-18.66-46.52A27.58,27.58,0,0,0,191.24,219.37Z"/><path class="cls-6" d="M209.9,265.89a27.52,27.52,0,0,1-10.42,4.18l-19.56-48.76-1,.4,20,49.9a28.47,28.47,0,0,0,12.38-5l-19.73-49.19-1,.39Z"/><path class="cls-7" d="M180.16,277.82A27.29,27.29,0,0,1,169.75,282l-19.56-48.75-1,.4,20,49.9a28.52,28.52,0,0,0,12.38-5l-20-49.9-1,.39Z"/><rect class="cls-6" x="158.06" y="225.74" width="32.04" height="53.77" transform="translate(-81.55 82.99) rotate(-21.86)"/><rect class="cls-6" x="161.03" y="230.21" width="23.7" height="45.78" transform="translate(-81.81 82.58) rotate(-21.86)"/><path class="cls-2" d="M203.83,273c-6.49,3.19-8.48,2.34-12.75,3.49-6.73,1.82-7.48,4.72-1.61,5.21C198.48,282.45,205.1,275.68,203.83,273Z"/><path class="cls-3" d="M89.64,107.17s-34,42.79-49.36,183.1l6.77-.15s29.07-126.2,48.18-180.34Z"/><g id="man"><path class="cls-3" d="M7.89,559s-9.5,8.8-7.65,15.06,10.43,10.43,11.59,18.07S17.62,604,21.79,604H41.68s3.07-5.38-4.35-7-10.21-10.61-9.75-19a148.48,148.48,0,0,0-.69-19.47l-15.76-3.71Z"/><path class="cls-3" d="M180.13,603.94H127.24a4.72,4.72,0,0,1-.94-.28c-3.52-1.76-2.42-15.23-2-19.4.08-.77.14-1.23.14-1.23s18.54-14.83,21.08-3.47c.08.35.17.7.28,1,3.2,10.63,17.6,15.46,25.91,16.8C178,598.42,179.69,602.08,180.13,603.94Z"/><path class="cls-3" d="M169.51,300s-2.81,35.13-6.12,77.35c-4.5,57.37-9.91,127.82-10.44,141.17-.93,23.18-4.64,60.25-4.64,60.25s-8.8,8.81-26.42,5.1c0,0-15.69-52.93-20.18-108.92l-.21-2.77c-4.17-57-10.65-177-10.65-177Z"/><path class="cls-6" d="M156.66,304.12s-50.75,127.22-84.12,187-43.8,76.47-43.8,76.47S9.62,560,7.89,554.74c0,0,12.76-115.42,35.1-143.56,12.63-15.9,27.46-63.61,28.16-80.29s4.52-49.71,4.52-49.71Z"/><path class="cls-8" d="M149.09,118.54c-21.69,6.83-59.21-6.4-59.21-6.4s20-20.24,19-51.44L125.37,74,137,83.39a146.36,146.36,0,0,1-1.65,17.47q-.39,2.69-.9,5.73A52,52,0,0,1,149.09,118.54Z"/><path class="cls-9" d="M98.9,100.64c2.35,1.33,6.68,5.11,12.94,7.1,8.36,2.66,15.85,2.66,22.6-1.15"/><path class="cls-9" d="M134.44,106.59a39.92,39.92,0,0,1,10.6,7.69c8.34,7.75,15.64,20,19.61,36,3.38,13.6,5.36,38.14,6.46,63.56.49,11.52.89,23.14,1,34.16v.4c.1,1.09.1,2.28.1,3.38.4,28.3,0,50.74-.5,51.14a3.22,3.22,0,0,1-2.08.79c-7.45-.1-29.17,4-47.54,2.15-15.49-1.49-29.2-6.08-43.93-12.68-2-.87-6.45-3.27-6.35-5.46.07-2.39.3-5.86.6-10.23,1-15.2,2.86-41.34,1.09-71.5-.32-5.61-.42-11.19-.51-16.67-.64-40.41,5.35-74.39,24.24-89,.34-.26,1.43-1.41,2.28-2.25"/><path class="cls-8" d="M107.5,74.19c-.84-3.31-1.6-4.93-2.06-8-3.37-22.37-11.26-36.37,11.47-41.12s28.47,3.12,31.41,10.31,4.53,45.38-4.7,47.51a66.83,66.83,0,0,1-20.93-.26"/><path class="cls-3" d="M148.32,35.37s-15.13,4.09-23.23,4.29-10,13-10,13-4.21-6-7.93-1.66c-1.72,2,1,9.34,4.43,11.55s-2.61,13.5-5.24,15.32c.23-7.37-11.91-42.57-11.91-42.57s29.2-25.38,40-22.37,25.3.51,24.11,9.44C157.78,28.41,155.35,34,148.32,35.37Z"/><path class="cls-3" d="M94.73,102.4s23.06-1.3,37,67.87c0,0-1.57,69.57-9.67,126.75,0,0-73.84-8.4-81.8-6.75s-17.8,79.34-17.8,79.34l92.32,13,11.34-2.56s14.09-181.4,12.3-210.76c0,0-13.14-60.7-41.22-69Z"/><path class="cls-6" d="M124.79,297.42a1,1,0,0,0-1.33.09,4.65,4.65,0,0,0-1,2,45.37,45.37,0,0,0-.9,5.44l-1.28,11c-.83,7.32-1.53,14.7-2.22,22.07s-1.31,14.79-1.84,22.23-1.07,14.88-1.42,22.4c1-7.26,1.76-14.59,2.54-21.93s1.49-14.71,2.18-22.08,1.31-14.77,1.88-22.2l.87-11.12a48.54,48.54,0,0,1,.53-5.38C123.1,298.31,123.89,297.06,124.79,297.42Z"/><path class="cls-10" d="M94.73,102.4c-20.47,8.79-34.95,37.4-42.32,54.49,12,4.41,23.93,8.93,35.89,13.38,4.42-12.2,8.75-24.39,12.29-36.87"/><path class="cls-10" d="M134.73,180.06c-4.7,1.54-11.74-2.6-16.27-3.54-4.58,22-35.39,72.25-65,54.08-19.11-11.74-9.19-56.22-1-73.39,11.82,3.68,23.9,8.8,35.82,13-1.3,4.07-2.69,8.19-3.8,12.24,7.73-4.53,18.81-10.29,25.67-14.67s14.41-11,21.83-7.22c1.13-.25,5.27-.6,6.06.25C142.77,166,142.11,177.65,134.73,180.06Z"/><path class="cls-10" d="M85.42,181.81q-7.62,5.16-15,10.69"/><path class="cls-3" d="M106,78.69c-.31-21.19-18.76-45.49-10.66-49C89.94,25.19,80,3.18,112.42,14.43,96.58-4.38,126.05-4.38,137.82,12c-2.7-23.36,33.34,5.22,18.76,19.58-14.36,14.14-47.22,5.89-47.22,5.89A78,78,0,0,1,109,48.58s-3.7-3.33-6.67-.8c-2.63,2.25,0,11.94,3.7,13.28C106,61.06,110.85,78.29,106,78.69Z"/></g><path class="cls-1" d="M117.63,119.59c1-3.74,4.18-6.71,8.51-9.11a110.1,110.1,0,0,1-14.73-5.18c-5.18-2.16-7.61-3.37-11.48-6.73a3.56,3.56,0,0,1-1.18-2.3,2.37,2.37,0,0,1,2.78-2.07c-4.77-1.35-10.62,3.23-10.31,7.83,11.53.06,18.72,9.57,25.6,21A19.73,19.73,0,0,1,117.63,119.59Z"/><path class="cls-11" d="M134.41,106.46a12.38,12.38,0,0,0-4.89,7.81c-1.13-2-.82-3.67-4.7-4.18"/></g></g></svg>