<svg xmlns="http://www.w3.org/2000/svg" viewBox="0 0 264.39 660.89"><defs><style>.cls-1{fill:#000019;}.cls-2,.cls-5{fill:#fff;}.cls-2{stroke:#231f20;stroke-miterlimit:10;stroke-width:0.99px;}.cls-3{fill:#191f2a;}.cls-4{fill:#cfbeb6;}.cls-6{fill:#23263d;}.cls-7{fill:#323657;}.cls-8{fill:#282b45;}</style></defs><g id="Layer_2" data-name="Layer 2"><g id="_Layer_copy" data-name="&lt;Layer&gt; copy"><path class="cls-1" d="M151.21,16C127.7,27.75,104.08,39.41,80.88,51.79q-39.52-6.34-79-12.63L72.47,0Q111.85,8,151.21,16Z"/><path class="cls-2" d="M229.16,222.06c.61.1,2.09.56,1.58,1.49-2.22,4.1-9.37,3.85-14.26,3.73,1.91.25,3.92.94,1.61,2.38-3.54,2.2-14.69,2.74-21.36,2-4.51.89-10.94-1.66-15.08-4.25-5.36-3.35-3.53-9.47,2.67-12.62,1.61.15,2.53.43,4.4-.26,2.8-1,5.14-5.19,8.51-4.71l0-.05c4.39-.61,11.6-.37,15.39-.47,3.31-.09,15.78.9,15.77,3.07,0,3.31-10.63,1-14.22,1.34-3.31.3-6.16,1.05-4.8,1.28,0-.27,4.76.55,6.92.81,2.32.26,14.88,2,15.6,4.11C232.83,222.4,230.5,221.73,229.16,222.06Z"/><path class="cls-1" d="M89.73,126.43c3.29,20.79,3.56,51.82,7.32,70s4.58,9.16,21.55,13.83c17.33,4.78,50.34.86,71.54-.08-2.33,4.74,7.38,44-2,44.46C161,256,105,237,77.33,230.82,55.38,225.93,62.18,146,58.8,129,70.2,128.33,79.44,126.3,89.73,126.43Z"/><path class="cls-1" d="M112.55,638.83c5.12,2.88,9.57,5.7,15,8.3s20.25,1.53,23.2,4.56,3.79,6.14-2.12,7.6-23.32,2.4-30.69.64-18.28,1.9-23.3-.19-1.5-17,0-20.49S109.21,638.1,112.55,638.83Z"/><path class="cls-1" d="M24,635.44c5.4,3.76,8.93,4.78,14.69,8.27s20.22,2.92,23.84,7.63,1.41,6.49-3.46,7.79c-7.79,2.08-24.16,1-32.4-1.86s-17.6,1.9-23.87-1.88S2.22,638.13,5.13,634,20.05,634.34,24,635.44Z"/><path class="cls-1" d="M26.77,629.51c-.62,2.38-1.25,4.76-1.85,7.14-6.75.34-13.09.37-19.55-1.84.68-2.46,1.36-4.93,2.05-7.39Z"/><path class="cls-1" d="M92.06,360.12c.89,9.72.21,18.81,0,28.83-.06,2.22.09,4.59-.16,7.12-1.49,15.37.44,16-1.83,34.45S81.45,460.66,76.79,484C71.53,510.4,46,598.82,29.86,631.79c-12.43.16-13.28-.26-25.37-2.51,1.13-28.86,7-77.76,9.8-103.85,3.14-29.22,2.74-42.8,11-68.38,5.56-17.23-.54-30.73-3.37-51.83s-5-53.37,5-75.65C29.42,324,82.78,352.92,92.06,360.12Z"/><path class="cls-2" d="M113.53,632.26q-.44,3.29-.88,6.57c-5.79,1-12,2-17.68.34l1-6.83Z"/><path class="cls-3" d="M115.92,632.89c-13,2-8.19,1.44-21,1.32-20.64-48.16-29.74-150.1-27.63-174.3C69.17,439,70.71,437,62.19,412.25S39.26,357,42,326.86c.69-7.53,45.12-22.44,55.48-16.15,2.63,9,16.15,53.32,16.94,61.39,4.47,46.09,16.51,43.7,11,87.52C128.15,503,129,578.08,115.92,632.89Z"/><path class="cls-4" d="M82.13,107.35c7.44,14.47,12.36,32.31,18.14,48.28s3.54,58.62,3.51,68.64c-.09,31.08-.8,39.72-.91,65.28-21.05,8.08-42.36,19.27-63.32,28.15-6-17.87-9.19-38.21-13.61-57.25s-4.13-60.48-3-73c3.56-39.38,14-63.87,35.39-91.11C66.07,101.85,74.33,103.14,82.13,107.35Z"/><path class="cls-2" d="M92,93c-.11.92-.32,2.46-.52,4.16-.09.71-.34,2.57-.43,3.68-.07.86-.11,2.35-.14,3.32,0,.35,0,1,0,1.28-.12,1.53,0,4.7-.07,6-.28,3.25.38,10.8.38,12.64,0,5-7.76-2.59-29.9-27,1.31-19.94,1.08-32.17,2.34-53.68S90.8,86.91,92,93Z"/><path class="cls-2" d="M63.23,80.86C57.09,69.28,51.77,50,56.73,36.42c6.05-16.56,43.8-11.06,52.59,6.93,1.31,2.68,3.92,6.42,3.72,13.84-.14,4.86.39,13.28.42,17.06s-2.89,27-11.08,27.37c-4.93.2-14-1.73-22-5.31"/><path class="cls-1" d="M61.94,84c1.65-.74,3.91-12.33,7-14.15,4.84-2.84,9.37-3.19,14.58-3C82.07,61.67,78.27,55,85.61,52s16.13-7.77,25.21-5.8c-2.09-11.75-1.24-17.59-13.69-26.45s-22.95,5.12-36.75,9.43S46.9,49.48,51.51,59.34C55.62,68.11,60.28,84.75,61.94,84"/><path class="cls-5" d="M74.67,58.71c-.39-.62-5.09-9.47-9.31-4S66,71.16,72.44,73.34,77.92,63.92,74.67,58.71Z"/><path class="cls-6" d="M107.23,299.15c-1.24-5.21-2.46-10.44-3.83-15.62-28.78,4.93-57.51,10.11-86.25,15.26q.62,5.49,1.22,11C47.93,307.62,78.26,305.65,107.23,299.15Z"/><path class="cls-7" d="M99.31,177.32c-.15,5.09-1,14.74-.48,19.76.32,4.69-.47-5.64.14,2s-.41,27.48-.92,38c0,1.1,0,3.2,0,4.28,0,1.76,0,4.72-.06,6.41,0,2.26-.16,6.78-.17,8.42-.26,34.43-7.33,73.74-21.41,105.29-15,1.13-41.31,3.55-54.83-2.45-5.28-42.18-7.19-83.79-7.31-126.74,0-3.32,0-13.33.16-18.07h0c1.62-50.14,26-74,44-117.06C77,115.56,100.08,150.58,99.31,177.32Z"/><path class="cls-8" d="M97.61,234a32,32,0,0,1,0,3.92,54.37,54.37,0,0,1-.17,6.29C86.2,242.28,68.35,238,62.32,228c-8.22-13.54,2.73-33.63,7.67-46.15-.11,9.3-5,38.16,4.17,43.57C80.07,228.94,90.89,230.81,97.61,234Z"/><path class="cls-2" d="M263.86,175.67Q260,220,256.17,264.29q-28.8-2-57.61-4.06c1.27-29.62,3.58-59.17,5.53-88.74Z"/><path class="cls-1" d="M137.71,504.55c-51.13-6.17-83.6,4.67-122.78-.19-5.46-69.28-6.16-163.9-5.88-226.9S17.63,140,58.24,95.87c12,16.8,24.1,27.38,36.3,41.78,7.68,21.46,33.93,33.7,31,126.5C123.46,331.11,140.48,437.91,137.71,504.55Z"/><path class="cls-2" d="M61.47,92.79c8.93,10,19,20.14,30.93,26.48q1.06,9.17,2.14,18.32-18.32-20-36.3-40.34C59.38,95.82,60.4,94.28,61.47,92.79Z"/><path class="cls-1" d="M42.22,69.41l-1.4.22Q38.25,52.2,35.7,34.78l1.4-.22Q39.67,52,42.22,69.41Z"/><path class="cls-1" d="M40.59,67.05h-.05s0,0,0,0c-3.41,3.84-1.27,14.7-.44,19.67l3.14-.49.27,0,3.15-.49C46,80.75,45,69.68,40.59,67.05Z"/><path class="cls-3" d="M108,29l3.73-9.6-37-10.37q-17.9,13.2-35.8,26.39c2.81,1.75,5.64,3.45,8.46,5.17C67.61,36.84,87.79,32.83,108,29Z"/><path class="cls-2" d="M109.38,29.3c.26,3.6.5,7.21.86,10.81h0C92.3,37,65.39,46.23,49.47,53.07c-1.5-3.86-2.85-7.72-4.08-11.67C65.08,33,87.89,26.71,109.38,29.3Z"/><path class="cls-3" d="M48.2,167.49c-3.44-18.26-11.52-46.36,6.58-52.3s34,29.3,37.7,40.31c3.87,11.52,12.84,66.41,19.43,69.55S138,226.7,148,226.33s33.54-4.21,41-3.54.84,51.57,1.12,58.16c-28.51-5.77-74.36-2.73-98.14-6.66S51.21,183.46,48.2,167.49Z"/><path class="cls-2" d="M94.5,137.64c-11.74-13.9-25-25.93-35.7-41-16.8,14.56,1.61-8.68-19.22,15.3s-35,82.87-28.33,120c2.87-26.49,17.46-108.22,42.59-120.4C65,110.4,87.47,131.14,94.5,137.64Z"/><path class="cls-2" d="M192.06,230.76c2.85-.68,6.81-.53,9.74-.56,6.56-.07,7.89-2.33,11.44-3.06a25.93,25.93,0,0,1,16.37,1.32,8.22,8.22,0,0,1,4.53,4.88c.92,2.21.07,9.22-10.73,15.4-6.2,3.54-9.85,3-17,2.89-5-.1-9.73-1.88-14.37-3.63"/></g></g></svg>