<svg xmlns="http://www.w3.org/2000/svg" viewBox="0 0 335.01 697.99"><defs><style>.cls-1{fill:#000019;}.cls-2{fill:#fff;stroke:#231f20;stroke-miterlimit:10;}.cls-3{fill:#191f2a;}</style></defs><g id="Layer_2" data-name="Layer 2"><g id="_Layer_copy" data-name="&lt;Layer&gt; copy"><path class="cls-1" d="M113.38,335.29a16.14,16.14,0,0,0-5.89-2.29l-12.88-2.26-1.35-.23a16.33,16.33,0,0,0-18.9,13.26l-.94,5.34h0l6.37,1.12h0l.93-5.34a9.86,9.86,0,0,1,11.42-8l2.59.45,11.63,2a10.19,10.19,0,0,1,2.16.64,9.87,9.87,0,0,1,5.84,10.77l-.93,5.35,6.38,1.12h0l.93-5.34A16.33,16.33,0,0,0,113.38,335.29Z"/><g id="man"><path class="cls-2" d="M317.07,294.48s16.41,10.38,17.08,12,.67,19.42-2.34,23.78-13.68-10-17.08-14.59-15.74-10.19-12.06-18.9S317.07,294.48,317.07,294.48Z"/><path class="cls-1" d="M80.28,644.19s-11.37,10.54-9.15,18S83.61,674.7,85,683.85,91.93,698,96.92,698h23.8s3.67-6.44-5.2-8.38-12.22-12.7-11.67-22.68-.83-23.29-.83-23.29L84.16,639.2Z"/><path class="cls-1" d="M286.42,698h-63.3a5.16,5.16,0,0,1-1.12-.35c-4.22-2.1-2.9-18.22-2.39-23.21.1-.92.17-1.47.17-1.47S242,655.17,245,668.76a12.73,12.73,0,0,0,.33,1.25c3.83,12.72,21.06,18.5,31,20.11C283.89,691.34,285.89,695.72,286.42,698Z"/><path class="cls-1" d="M273.71,334.14s-3.37,42-7.33,92.57c-5.38,68.65-11.86,153-12.5,168.94-1.1,27.74-5.54,72.11-5.54,72.11s-10.54,10.54-31.62,6.1c0,0-18.79-63.34-24.15-130.35-.09-1.1-.17-2.21-.25-3.32-5-68.22-12.76-211.88-12.76-211.88Z"/><path class="cls-3" d="M258.32,339.13s-60.73,152.25-100.67,223.8-52.41,91.52-52.41,91.52-22.88-9.15-25-15.39c0,0,15.27-138.13,42-171.8,15.12-19,32.87-76.13,33.7-96.1s5.41-59.48,5.41-59.48Z"/><path class="cls-2" d="M243.41,115.09c-23.73,7.48-65-10.64-65-10.64s18-16.07,20.74-50.56l18.1,14.58L230,78.72s-1.34,1.72-3.55,13.75c-1.1,6-1.1,6-.08,9.38A131.21,131.21,0,0,1,243.41,115.09Z"/><path class="cls-2" d="M315.63,306.72a67.14,67.14,0,0,0,9.13-12.38S280.22,239,276.6,233.26s-30.67-97.78-30.67-97.78l-68.41-13.86s57.1,117.8,66.56,132.16c15.63,23.73,62.39,59,62.39,59A28.22,28.22,0,0,0,315.63,306.72Z"/><path class="cls-2" d="M276.33,337.64a3.84,3.84,0,0,1-2.5.95c-8.91-.12-34.9,4.83-56.89,2.57C198.4,339.38,182,333.89,164.37,326c-2.34-1.05-7.72-3.92-7.6-6.54.08-2.86.36-7,.72-12.25,1.25-18.18,3.42-49.47,1.3-85.56-.38-6.72-.53-13.39-.6-19.95-.53-48.42,7.55-87.12,26-104.08,1.51-1.39,12.22,4.44,22.49,6.49,6.68,1.34,11.48,1.78,19.63-2.25A85.7,85.7,0,0,1,242.22,114c10,9.27,20.92,21.86,25.67,41,4,16.28,6.42,45.64,7.73,76.06.59,13.79,1.07,27.69,1.19,40.89v.47c.11,1.31.11,2.74.11,4C277.4,310.3,276.92,337.16,276.33,337.64Z"/><path class="cls-2" d="M117.68,313.57l-3.89,6.7s7.61,16.12-10.44,22.14c0,0-7.77,2-8.44-3.43s.48-3.26-.64-10.87,1.84-14.37,7.45-16.18l4.42-4.24Z"/><path class="cls-2" d="M178.42,104.1c-18.6,23.66-62.19,104.85-66,122.44-6,27.79-15.19,84.56-15.19,84.56a28.15,28.15,0,0,0,10.13,4.31,67.29,67.29,0,0,0,15.35.85s21.88-67.58,24.7-73.76C149,239,170.24,213.35,188,192.19"/><path class="cls-2" d="M197.68,68.65a19.05,19.05,0,0,1-3.35-8.45C190.65,35.72,183.12,20.08,208,14.88s31.15,3.42,34.37,11.29,5,49.66-5.14,52c0,0-11.69,1.94-22.9-.28"/><path class="cls-1" d="M242.36,26.17s-16.56,4.47-25.42,4.69-6.53,13.61-8.73,14.27-6.83-6.57-10.9-1.85c-1.88,2.2,1.1,10.23,4.84,12.65s-6.37,18.45-6.37,18.45-18-16.92-13.86-47,33.42-29,45.29-25.72S254.9,2.17,253.6,12C252.72,18.55,250.06,24.63,242.36,26.17Z"/></g><path class="cls-1" d="M152.05,363.07l-26.23-4.61h0l-9.73-1.7h0l-51.35-9h0L51.8,345.47h0l-23-4.05A14.58,14.58,0,0,0,12,353.23L.22,420A14.59,14.59,0,0,0,12,436.86L135.29,458.5a14.58,14.58,0,0,0,16.83-11.8l11.73-66.8A14.58,14.58,0,0,0,152.05,363.07Z"/></g></g></svg>