<svg width="25" height="25" viewBox="0 0 25 25" fill="none" xmlns="http://www.w3.org/2000/svg">
<g clip-path="url(#clip0_365_4233)">
<path d="M24.5 10.0651V19.3411C24.4984 20.6667 23.9711 21.9376 23.0338 22.8749C22.0964 23.8122 20.8256 24.3395 19.5 24.3411H18.5C18.2348 24.3411 17.9804 24.2358 17.7929 24.0482C17.6054 23.8607 17.5 23.6063 17.5 23.3411C17.5 23.0759 17.6054 22.8216 17.7929 22.634C17.9804 22.4465 18.2348 22.3411 18.5 22.3411H19.5C20.2957 22.3411 21.0587 22.0251 21.6213 21.4624C22.1839 20.8998 22.5 20.1368 22.5 19.3411V10.0651C22.5 9.57404 22.3795 9.09046 22.149 8.65684C21.9185 8.22321 21.5851 7.8528 21.178 7.57812L14.178 2.85512C13.6834 2.51793 13.0986 2.33758 12.5 2.33758C11.9014 2.33758 11.3166 2.51793 10.822 2.85512L3.822 7.57812C3.41493 7.8528 3.0815 8.22321 2.851 8.65684C2.6205 9.09046 2.49998 9.57404 2.5 10.0651V19.3411C2.5 20.1368 2.81607 20.8998 3.37868 21.4624C3.94129 22.0251 4.70435 22.3411 5.5 22.3411H6.5C6.76522 22.3411 7.01957 22.4465 7.20711 22.634C7.39465 22.8216 7.5 23.0759 7.5 23.3411C7.5 23.6063 7.39465 23.8607 7.20711 24.0482C7.01957 24.2358 6.76522 24.3411 6.5 24.3411H5.5C4.17441 24.3395 2.90356 23.8122 1.96622 22.8749C1.02889 21.9376 0.501592 20.6667 0.500004 19.3411V10.0651C0.498979 9.24684 0.699083 8.44085 1.08271 7.71806C1.46633 6.99528 2.02172 6.37786 2.7 5.92012L9.7 1.19612C10.5253 0.636076 11.4997 0.33667 12.497 0.33667C13.4944 0.33667 14.4687 0.636076 15.294 1.19612L22.294 5.92012C22.973 6.37762 23.5292 6.99484 23.9138 7.71756C24.2985 8.44029 24.4998 9.24642 24.5 10.0651ZM19.5 15.3481C19.5026 16.2676 19.3227 17.1785 18.9708 18.028C18.6189 18.8775 18.102 19.6488 17.45 20.2971L13.935 23.7351C13.5502 24.1077 13.0356 24.316 12.5 24.316C11.9644 24.316 11.4498 24.1077 11.065 23.7351L7.558 20.3051C6.7424 19.4921 6.13999 18.4903 5.80419 17.3887C5.46839 16.2871 5.40957 15.1197 5.63293 13.9899C5.8563 12.8602 6.35496 11.803 7.08471 10.912C7.81445 10.0211 8.75274 9.324 9.81639 8.88249C10.88 8.44098 12.0362 8.26872 13.1823 8.38098C14.3285 8.49323 15.4293 8.88654 16.387 9.52603C17.3448 10.1655 18.13 11.0314 18.673 12.047C19.216 13.0626 19.5001 14.1965 19.5 15.3481ZM17.5 15.3481C17.5 14.5259 17.2973 13.7164 16.9097 12.9912C16.5221 12.266 15.9617 11.6477 15.278 11.1908C14.5944 10.734 13.8086 10.4528 12.9904 10.3722C12.1721 10.2915 11.3466 10.4139 10.5869 10.7285C9.82726 11.0431 9.1569 11.5402 8.63523 12.1758C8.11356 12.8113 7.75667 13.5657 7.59618 14.3721C7.43569 15.1785 7.47654 16.0121 7.71513 16.7989C7.95372 17.5858 8.38268 18.3016 8.964 18.8831L12.464 22.3051L16.044 18.8751C16.5076 18.4125 16.875 17.8627 17.1249 17.2573C17.3748 16.6519 17.5023 16.003 17.5 15.3481ZM15.5 15.3411C15.5 15.9345 15.3241 16.5145 14.9944 17.0078C14.6648 17.5012 14.1962 17.8857 13.6481 18.1128C13.0999 18.3398 12.4967 18.3992 11.9147 18.2835C11.3328 18.1677 10.7982 17.882 10.3787 17.4624C9.95913 17.0429 9.6734 16.5083 9.55765 15.9264C9.44189 15.3445 9.5013 14.7413 9.72837 14.1931C9.95543 13.6449 10.3399 13.1764 10.8333 12.8467C11.3266 12.5171 11.9067 12.3411 12.5 12.3411C13.2957 12.3411 14.0587 12.6572 14.6213 13.2198C15.1839 13.7824 15.5 14.5455 15.5 15.3411Z" fill="black"/>
</g>
<defs>
<clipPath id="clip0_365_4233">
<rect width="24" height="24" fill="white" transform="translate(0.5 0.341064)"/>
</clipPath>
</defs>
</svg>
