<svg width="30" height="31" viewBox="0 0 30 31" fill="none" xmlns="http://www.w3.org/2000/svg">
<path d="M23.75 5.60547H22.375C22.0849 4.19473 21.3173 2.92715 20.2016 2.01637C19.0859 1.10558 17.6903 0.607287 16.25 0.605469L13.75 0.605469C12.3097 0.607287 10.9141 1.10558 9.79844 2.01637C8.68273 2.92715 7.91512 4.19473 7.625 5.60547H6.25C4.59301 5.60745 3.00445 6.26657 1.83277 7.43824C0.661102 8.60992 0.00198482 10.1985 0 11.8555L0 24.3555C0.00198482 26.0125 0.661102 27.601 1.83277 28.7727C3.00445 29.9444 4.59301 30.6035 6.25 30.6055H23.75C25.407 30.6035 26.9956 29.9444 28.1672 28.7727C29.3389 27.601 29.998 26.0125 30 24.3555V11.8555C29.998 10.1985 29.3389 8.60992 28.1672 7.43824C26.9956 6.26657 25.407 5.60745 23.75 5.60547ZM13.75 3.10547H16.25C17.0228 3.10867 17.7758 3.35057 18.4059 3.79808C19.036 4.24558 19.5124 4.87683 19.77 5.60547H10.23C10.4876 4.87683 10.964 4.24558 11.5941 3.79808C12.2242 3.35057 12.9772 3.10867 13.75 3.10547ZM6.25 8.10547H23.75C24.7446 8.10547 25.6984 8.50056 26.4017 9.20382C27.1049 9.90708 27.5 10.8609 27.5 11.8555V15.6055H2.5V11.8555C2.5 10.8609 2.89509 9.90708 3.59835 9.20382C4.30161 8.50056 5.25544 8.10547 6.25 8.10547ZM23.75 28.1055H6.25C5.25544 28.1055 4.30161 27.7104 3.59835 27.0071C2.89509 26.3039 2.5 25.35 2.5 24.3555V18.1055H13.75V19.3555C13.75 19.687 13.8817 20.0049 14.1161 20.2394C14.3505 20.4738 14.6685 20.6055 15 20.6055C15.3315 20.6055 15.6495 20.4738 15.8839 20.2394C16.1183 20.0049 16.25 19.687 16.25 19.3555V18.1055H27.5V24.3555C27.5 25.35 27.1049 26.3039 26.4017 27.0071C25.6984 27.7104 24.7446 28.1055 23.75 28.1055Z" fill="#1F1F2D"/>
</svg>
