<svg width="33" height="33" viewBox="0 0 33 33" fill="none" xmlns="http://www.w3.org/2000/svg">
<path d="M32.4863 13.3873V25.7553C32.4842 27.5227 31.7812 29.2172 30.5314 30.467C29.2816 31.7168 27.5871 32.4198 25.8197 32.422H24.4863C24.1327 32.422 23.7936 32.2815 23.5435 32.0314C23.2935 31.7814 23.153 31.4422 23.153 31.0886C23.153 30.735 23.2935 30.3959 23.5435 30.1458C23.7936 29.8958 24.1327 29.7553 24.4863 29.7553H25.8197C26.8805 29.7553 27.898 29.3339 28.6481 28.5837C29.3982 27.8336 29.8197 26.8162 29.8197 25.7553V13.3873C29.8197 12.7325 29.659 12.0877 29.3517 11.5096C29.0443 10.9314 28.5998 10.4375 28.057 10.0713L18.7237 3.77395C18.0642 3.32436 17.2845 3.08389 16.4863 3.08389C15.6882 3.08389 14.9085 3.32436 14.249 3.77395L4.91567 10.0713C4.3729 10.4375 3.92833 10.9314 3.621 11.5096C3.31366 12.0877 3.15296 12.7325 3.153 13.3873V25.7553C3.153 26.8162 3.57443 27.8336 4.32457 28.5837C5.07472 29.3339 6.09213 29.7553 7.153 29.7553H8.48633C8.83996 29.7553 9.17909 29.8958 9.42914 30.1458C9.67919 30.3959 9.81967 30.735 9.81967 31.0886C9.81967 31.4422 9.67919 31.7814 9.42914 32.0314C9.17909 32.2815 8.83996 32.422 8.48633 32.422H7.153C5.38554 32.4198 3.69108 31.7168 2.44129 30.467C1.19151 29.2172 0.48845 27.5227 0.486333 25.7553V13.3873C0.484967 12.2962 0.751772 11.2216 1.26327 10.2579C1.77477 9.29416 2.51529 8.47093 3.41967 7.86062L12.753 1.56195C13.8534 0.815223 15.1525 0.416016 16.4823 0.416016C17.8121 0.416016 19.1113 0.815223 20.2117 1.56195L29.545 7.86062C30.4503 8.47061 31.1919 9.29357 31.7048 10.2572C32.2176 11.2208 32.486 12.2957 32.4863 13.3873ZM25.8197 20.4313C25.8231 21.6573 25.5833 22.8718 25.1141 24.0045C24.6449 25.1371 23.9557 26.1655 23.0863 27.03L18.3997 31.614C17.8866 32.1107 17.2005 32.3884 16.4863 32.3884C15.7722 32.3884 15.0861 32.1107 14.573 31.614L9.897 27.0406C8.80953 25.9565 8.00632 24.6209 7.55858 23.1521C7.11085 21.6833 7.03242 20.1267 7.33024 18.6204C7.62806 17.114 8.29294 15.7044 9.26594 14.5165C10.2389 13.3286 11.49 12.3991 12.9082 11.8104C14.3264 11.2218 15.8679 10.9921 17.3961 11.1418C18.9243 11.2914 20.392 11.8158 21.669 12.6685C22.9461 13.5212 23.993 14.6757 24.717 16.0298C25.441 17.3839 25.8198 18.8958 25.8197 20.4313ZM23.153 20.4313C23.153 19.335 22.8827 18.2556 22.3659 17.2887C21.8491 16.3218 21.1019 15.4973 20.1904 14.8882C19.2789 14.2791 18.2312 13.9042 17.1402 13.7967C16.0491 13.6891 14.9484 13.8523 13.9356 14.2718C12.9227 14.6913 12.0289 15.3541 11.3333 16.2015C10.6377 17.0489 10.1619 18.0547 9.9479 19.1299C9.73391 20.2051 9.78839 21.3165 10.1065 22.3657C10.4246 23.4148 10.9966 24.3693 11.7717 25.1446L16.4383 29.7073L21.2117 25.134C21.8298 24.5172 22.3196 23.784 22.6529 22.9769C22.9861 22.1697 23.156 21.3045 23.153 20.4313ZM20.4863 20.422C20.4863 21.2131 20.2517 21.9864 19.8122 22.6442C19.3727 23.302 18.748 23.8147 18.0171 24.1175C17.2862 24.4202 16.4819 24.4994 15.706 24.3451C14.93 24.1908 14.2173 23.8098 13.6579 23.2504C13.0985 22.691 12.7175 21.9782 12.5632 21.2023C12.4089 20.4264 12.4881 19.6221 12.7908 18.8912C13.0936 18.1603 13.6063 17.5356 14.2641 17.0961C14.9219 16.6565 15.6952 16.422 16.4863 16.422C17.5472 16.422 18.5646 16.8434 19.3148 17.5935C20.0649 18.3437 20.4863 19.3611 20.4863 20.422Z" fill="white"/>
</svg>
