<svg width="14" height="14" viewBox="0 0 14 14" fill="none" xmlns="http://www.w3.org/2000/svg">
<path d="M7.87491 3.79116C7.87491 4.02322 7.78272 4.24578 7.61863 4.40988C7.45453 4.57397 7.23197 4.66616 6.99991 4.66616C6.76784 4.66616 6.54528 4.57397 6.38119 4.40988C6.2171 4.24578 6.12491 4.02322 6.12491 3.79116C6.12491 3.5591 6.2171 3.33654 6.38119 3.17244C6.54528 3.00835 6.76784 2.91616 6.99991 2.91616C7.23197 2.91616 7.45453 3.00835 7.61863 3.17244C7.78272 3.33654 7.87491 3.5591 7.87491 3.79116ZM13.9999 11.0828V7.19783C14.0217 5.39967 13.3624 3.65985 12.1544 2.32768C10.9465 0.995505 9.27927 0.169615 7.48758 0.0158267C6.48754 -0.0541397 5.48414 0.0915082 4.54526 0.442916C3.60639 0.794324 2.75395 1.34329 2.04561 2.05268C1.33727 2.76207 0.789568 3.61532 0.439552 4.55472C0.089537 5.49411 -0.0546231 6.49773 0.0168257 7.49766C0.274659 11.2042 3.54774 13.9995 7.63166 13.9995H11.0832C11.8565 13.9986 12.5978 13.691 13.1446 13.1442C13.6914 12.5974 13.999 11.8561 13.9999 11.0828ZM7.40824 1.18016C8.90534 1.3126 10.2969 2.00669 11.3032 3.12298C12.3096 4.23928 12.8562 5.69506 12.8332 7.19783V11.0828C12.8332 11.547 12.6489 11.9921 12.3207 12.3203C11.9925 12.6485 11.5474 12.8328 11.0832 12.8328H7.63166C4.11183 12.8328 1.39991 10.5578 1.18116 7.41716C1.12373 6.61717 1.23189 5.81392 1.49889 5.05762C1.76589 4.30131 2.18598 3.60819 2.73293 3.02155C3.27987 2.43492 3.94192 1.96738 4.6777 1.64814C5.41348 1.3289 6.20719 1.16482 7.00924 1.16616C7.14166 1.16616 7.27524 1.17141 7.40824 1.18016ZM8.16657 10.4995V6.99949C8.16657 6.69008 8.04366 6.39333 7.82487 6.17454C7.60607 5.95574 7.30933 5.83283 6.99991 5.83283H6.41657C6.26187 5.83283 6.11349 5.89429 6.0041 6.00368C5.8947 6.11308 5.83324 6.26145 5.83324 6.41616C5.83324 6.57087 5.8947 6.71924 6.0041 6.82864C6.11349 6.93804 6.26187 6.99949 6.41657 6.99949H6.99991V10.4995C6.99991 10.6542 7.06137 10.8026 7.17076 10.912C7.28016 11.0214 7.42853 11.0828 7.58324 11.0828C7.73795 11.0828 7.88632 11.0214 7.99572 10.912C8.10512 10.8026 8.16657 10.6542 8.16657 10.4995Z" fill="black"/>
</svg>
