<svg width="30" height="31" viewBox="0 0 30 31" fill="none" xmlns="http://www.w3.org/2000/svg">
<g clip-path="url(#clip0_113_11235)">
<path d="M23.75 5.13184H23.115L20.385 1.59184C20.0332 1.13909 19.5829 0.772357 19.0683 0.519403C18.5538 0.26645 17.9884 0.133915 17.415 0.131836L12.585 0.131836C12.0116 0.133915 11.4462 0.26645 10.9317 0.519403C10.4171 0.772357 9.96684 1.13909 9.615 1.59184L6.885 5.13184H6.25C4.59301 5.13382 3.00445 5.79294 1.83277 6.96461C0.661102 8.13628 0.00198482 9.72484 0 11.3818L0 23.8818C0.00198482 25.5388 0.661102 27.1274 1.83277 28.2991C3.00445 29.4707 4.59301 30.1299 6.25 30.1318H23.75C25.407 30.1299 26.9956 29.4707 28.1672 28.2991C29.3389 27.1274 29.998 25.5388 30 23.8818V11.3818C29.998 9.72484 29.3389 8.13628 28.1672 6.96461C26.9956 5.79294 25.407 5.13382 23.75 5.13184ZM11.595 3.11934C11.7121 2.96815 11.8621 2.84567 12.0337 2.76119C12.2052 2.67671 12.3938 2.63247 12.585 2.63184H17.415C17.6062 2.63266 17.7947 2.67698 17.9662 2.76144C18.1377 2.8459 18.2878 2.96829 18.405 3.11934L19.9575 5.13184H10.0425L11.595 3.11934ZM27.5 23.8818C27.5 24.8764 27.1049 25.8302 26.4017 26.5335C25.6984 27.2367 24.7446 27.6318 23.75 27.6318H6.25C5.25544 27.6318 4.30161 27.2367 3.59835 26.5335C2.89509 25.8302 2.5 24.8764 2.5 23.8818V11.3818C2.5 10.3873 2.89509 9.43345 3.59835 8.73019C4.30161 8.02692 5.25544 7.63184 6.25 7.63184H23.75C24.7446 7.63184 25.6984 8.02692 26.4017 8.73019C27.1049 9.43345 27.5 10.3873 27.5 11.3818V23.8818Z" fill="#1F1F2D"/>
<path d="M15 10.1318C13.5166 10.1318 12.0666 10.5717 10.8332 11.3958C9.59986 12.2199 8.63856 13.3913 8.07091 14.7617C7.50325 16.1322 7.35472 17.6402 7.64411 19.095C7.9335 20.5499 8.64781 21.8862 9.6967 22.9351C10.7456 23.984 12.082 24.6983 13.5368 24.9877C14.9917 25.2771 16.4997 25.1286 17.8701 24.5609C19.2406 23.9933 20.4119 23.032 21.236 21.7986C22.0601 20.5652 22.5 19.1152 22.5 17.6318C22.498 15.6433 21.7072 13.7368 20.3011 12.3307C18.895 10.9246 16.9885 10.1338 15 10.1318ZM15 22.6318C14.0111 22.6318 13.0444 22.3386 12.2222 21.7892C11.3999 21.2398 10.759 20.4589 10.3806 19.5453C10.0022 18.6316 9.90315 17.6263 10.0961 16.6564C10.289 15.6865 10.7652 14.7956 11.4645 14.0963C12.1637 13.397 13.0546 12.9208 14.0245 12.7279C14.9945 12.535 15.9998 12.634 16.9134 13.0124C17.827 13.3909 18.6079 14.0317 19.1573 14.854C19.7068 15.6762 20 16.6429 20 17.6318C20 18.9579 19.4732 20.2297 18.5355 21.1674C17.5978 22.1051 16.3261 22.6318 15 22.6318Z" fill="#1F1F2D"/>
</g>
<defs>
<clipPath id="clip0_113_11235">
<rect width="30" height="30" fill="white" transform="translate(0 0.131836)"/>
</clipPath>
</defs>
</svg>
