<svg width="31" height="31" viewBox="0 0 31 31" fill="none" xmlns="http://www.w3.org/2000/svg">
<g clip-path="url(#clip0_4_86215)">
<path d="M24.5417 25.8333H6.45833C4.74611 25.8313 3.10459 25.1502 1.89387 23.9395C0.683139 22.7287 0.00205098 21.0872 0 19.375L0 11.625C0.00205098 9.91277 0.683139 8.27126 1.89387 7.06054C3.10459 5.84981 4.74611 5.16872 6.45833 5.16667H24.5417C26.2539 5.16872 27.8954 5.84981 29.1061 7.06054C30.3169 8.27126 30.9979 9.91277 31 11.625V19.375C30.9979 21.0872 30.3169 22.7287 29.1061 23.9395C27.8954 25.1502 26.2539 25.8313 24.5417 25.8333ZM6.45833 7.75C5.43062 7.75 4.445 8.15826 3.71829 8.88496C2.99159 9.61167 2.58333 10.5973 2.58333 11.625V19.375C2.58333 20.4027 2.99159 21.3883 3.71829 22.115C4.445 22.8417 5.43062 23.25 6.45833 23.25H24.5417C25.5694 23.25 26.555 22.8417 27.2817 22.115C28.0084 21.3883 28.4167 20.4027 28.4167 19.375V11.625C28.4167 10.5973 28.0084 9.61167 27.2817 8.88496C26.555 8.15826 25.5694 7.75 24.5417 7.75H6.45833ZM15.5 20.6667C14.4781 20.6667 13.4792 20.3636 12.6296 19.7959C11.7799 19.2282 11.1177 18.4213 10.7266 17.4772C10.3356 16.5331 10.2332 15.4943 10.4326 14.492C10.632 13.4898 11.124 12.5692 11.8466 11.8466C12.5692 11.124 13.4898 10.632 14.492 10.4326C15.4943 10.2333 16.5331 10.3356 17.4772 10.7266C18.4213 11.1177 19.2282 11.7799 19.7959 12.6296C20.3636 13.4792 20.6667 14.4781 20.6667 15.5C20.6667 16.8703 20.1223 18.1844 19.1534 19.1534C18.1844 20.1223 16.8703 20.6667 15.5 20.6667ZM15.5 12.9167C14.9891 12.9167 14.4896 13.0682 14.0648 13.352C13.6399 13.6359 13.3088 14.0394 13.1133 14.5114C12.9178 14.9834 12.8666 15.5029 12.9663 16.004C13.066 16.5051 13.312 16.9654 13.6733 17.3267C14.0346 17.688 14.4949 17.934 14.996 18.0337C15.4971 18.1334 16.0166 18.0822 16.4886 17.8867C16.9606 17.6912 17.3641 17.36 17.648 16.9352C17.9318 16.5104 18.0833 16.0109 18.0833 15.5C18.0833 14.8149 17.8112 14.1578 17.3267 13.6733C16.8422 13.1888 16.1851 12.9167 15.5 12.9167ZM6.45833 10.3333C6.20286 10.3333 5.95313 10.4091 5.74072 10.551C5.52831 10.6929 5.36275 10.8947 5.26499 11.1307C5.16722 11.3667 5.14164 11.6264 5.19148 11.877C5.24132 12.1276 5.36434 12.3577 5.54499 12.5383C5.72563 12.719 5.95578 12.842 6.20634 12.8918C6.4569 12.9417 6.71661 12.9161 6.95263 12.8183C7.18865 12.7206 7.39038 12.555 7.53231 12.3426C7.67424 12.1302 7.75 11.8805 7.75 11.625C7.75 11.2824 7.61391 10.9539 7.37168 10.7117C7.12944 10.4694 6.8009 10.3333 6.45833 10.3333ZM23.25 11.625C23.25 11.8805 23.3257 12.1302 23.4677 12.3426C23.6096 12.555 23.8113 12.7206 24.0474 12.8183C24.2834 12.9161 24.5431 12.9417 24.7937 12.8918C25.0442 12.842 25.2744 12.719 25.455 12.5383C25.6356 12.3577 25.7587 12.1276 25.8085 11.877C25.8583 11.6264 25.8328 11.3667 25.735 11.1307C25.6372 10.8947 25.4717 10.6929 25.2593 10.551C25.0469 10.4091 24.7971 10.3333 24.5417 10.3333C24.1991 10.3333 23.8705 10.4694 23.6283 10.7117C23.3861 10.9539 23.25 11.2824 23.25 11.625ZM6.45833 18.0833C6.20286 18.0833 5.95313 18.1591 5.74072 18.301C5.52831 18.4429 5.36275 18.6447 5.26499 18.8807C5.16722 19.1167 5.14164 19.3764 5.19148 19.627C5.24132 19.8775 5.36434 20.1077 5.54499 20.2883C5.72563 20.469 5.95578 20.592 6.20634 20.6418C6.4569 20.6917 6.71661 20.6661 6.95263 20.5683C7.18865 20.4706 7.39038 20.305 7.53231 20.0926C7.67424 19.8802 7.75 19.6305 7.75 19.375C7.75 19.0324 7.61391 18.7039 7.37168 18.4616C7.12944 18.2194 6.8009 18.0833 6.45833 18.0833ZM23.25 19.375C23.25 19.6305 23.3257 19.8802 23.4677 20.0926C23.6096 20.305 23.8113 20.4706 24.0474 20.5683C24.2834 20.6661 24.5431 20.6917 24.7937 20.6418C25.0442 20.592 25.2744 20.469 25.455 20.2883C25.6356 20.1077 25.7587 19.8775 25.8085 19.627C25.8583 19.3764 25.8328 19.1167 25.735 18.8807C25.6372 18.6447 25.4717 18.4429 25.2593 18.301C25.0469 18.1591 24.7971 18.0833 24.5417 18.0833C24.1991 18.0833 23.8705 18.2194 23.6283 18.4616C23.3861 18.7039 23.25 19.0324 23.25 19.375Z" fill="black"/>
</g>
<defs>
<clipPath id="clip0_4_86215">
<rect width="31" height="31" fill="white"/>
</clipPath>
</defs>
</svg>
