<svg width="19" height="19" viewBox="0 0 19 19" fill="none" xmlns="http://www.w3.org/2000/svg">
<ellipse cx="9.5" cy="9.44102" rx="9.5" ry="9.43418" fill="white"/>
<path d="M13.3585 7.10764L8.17683 12.1617C8.142 12.1958 8.10059 12.2229 8.055 12.2413C8.00941 12.2598 7.96053 12.2693 7.91117 12.2693C7.8618 12.2693 7.81292 12.2598 7.76733 12.2413C7.72174 12.2229 7.68034 12.1958 7.6455 12.1617L5.64168 10.2052C5.60684 10.1711 5.56544 10.144 5.51985 10.1256C5.47426 10.1071 5.42538 10.0976 5.37601 10.0976C5.32665 10.0976 5.27777 10.1071 5.23218 10.1256C5.18659 10.144 5.14519 10.1711 5.11035 10.2052C5.07537 10.2392 5.04762 10.2796 5.02868 10.3241C5.00975 10.3685 5 10.4162 5 10.4644C5 10.5125 5.00975 10.5602 5.02868 10.6047C5.04762 10.6491 5.07537 10.6895 5.11035 10.7235L7.11493 12.6785C7.32639 12.8844 7.61296 13 7.91173 13C8.21051 13 8.49708 12.8844 8.70854 12.6785L13.8898 7.62555C13.9248 7.59157 13.9525 7.55121 13.9714 7.50678C13.9903 7.46234 14 7.4147 14 7.36659C14 7.31848 13.9903 7.27085 13.9714 7.22641C13.9525 7.18198 13.9248 7.14161 13.8898 7.10764C13.855 7.07352 13.8136 7.04645 13.768 7.02798C13.7224 7.00951 13.6735 7 13.6242 7C13.5748 7 13.5259 7.00951 13.4803 7.02798C13.4347 7.04645 13.3933 7.07352 13.3585 7.10764Z" fill="#04B983" stroke="#04B983"/>
</svg>
