<svg width="33" height="33" viewBox="0 0 33 33" fill="none" xmlns="http://www.w3.org/2000/svg">
<path d="M28.4903 21.2101L23.461 29.4167C22.9087 30.3234 22.1569 31.0921 21.2627 31.6644C20.3685 32.2367 19.3556 32.5975 18.301 32.7194C18.0231 32.7523 17.7435 32.7688 17.4637 32.7687C16.031 32.7667 14.6339 32.322 13.4637 31.4954C12.2545 32.4013 10.7607 32.8442 9.25311 32.7436C7.74549 32.6431 6.32374 32.0059 5.24546 30.9475C4.16718 29.889 3.5037 28.4793 3.37523 26.9738C3.24675 25.4684 3.66179 23.9666 4.54514 22.7408L2.79182 20.9901C2.04315 20.2414 1.47359 19.333 1.12577 18.333C0.777954 17.3329 0.660905 16.2672 0.78339 15.2155C0.905874 14.1638 1.26472 13.1534 1.83304 12.2601C2.40137 11.3667 3.16445 10.6135 4.06514 10.0569L11.7544 5.30227C13.8373 3.96732 16.2869 3.32009 18.7573 3.45191C21.2278 3.58372 23.5946 4.48792 25.5236 6.03693L27.7356 3.82495C27.8586 3.69761 28.0057 3.59603 28.1684 3.52615C28.3311 3.45628 28.506 3.41949 28.6831 3.41796C28.8601 3.41642 29.0357 3.45015 29.1995 3.51719C29.3634 3.58423 29.5123 3.68324 29.6374 3.80843C29.7626 3.93362 29.8616 4.08248 29.9287 4.24634C29.9957 4.4102 30.0295 4.58578 30.0279 4.76281C30.0264 4.93985 29.9896 5.11481 29.9197 5.27748C29.8498 5.44015 29.7483 5.58728 29.6209 5.71027L27.4116 7.92092C28.8934 9.77722 29.7876 12.0334 29.9797 14.4009C30.1719 16.7683 29.6533 19.1392 28.4903 21.2101ZM11.4317 29.6314L6.47312 24.6714C6.08563 25.3644 5.93617 26.1654 6.04768 26.9516C6.1592 27.7377 6.52551 28.4655 7.09045 29.0234C7.66034 29.5647 8.38521 29.9144 9.16362 30.0234C9.94204 30.1324 10.7351 29.9954 11.4317 29.6314ZM24.6596 8.83158C23.179 7.33671 21.23 6.39563 19.1386 6.16579C17.0472 5.93594 14.9403 6.43128 13.1704 7.56892L5.4678 12.3235C4.90919 12.6688 4.43594 13.136 4.08348 13.6901C3.73103 14.2443 3.50851 14.8709 3.43258 15.5232C3.35665 16.1755 3.42929 16.8366 3.64505 17.4568C3.86081 18.0771 4.2141 18.6405 4.67847 19.1048L14.3984 28.8261C14.8635 29.2917 15.4281 29.6458 16.0498 29.8618C16.6715 30.0778 17.3341 30.15 17.9877 30.073C18.6413 29.996 19.269 29.7718 19.8235 29.4172C20.3779 29.0627 20.8448 28.5871 21.189 28.0261L26.1956 19.8595C27.1735 18.1031 27.5526 16.076 27.2754 14.085C26.9983 12.094 26.08 10.2474 24.6596 8.82491V8.83158ZM26.365 32.7687C26.0834 32.7692 25.8089 32.6806 25.5808 32.5155C25.3527 32.3504 25.1827 32.1173 25.0952 31.8497C25.0077 31.582 25.0072 31.2935 25.0937 31.0256C25.1803 30.7576 25.3494 30.524 25.577 30.3581C27.9116 28.6028 29.4917 26.0256 29.9969 23.1488C30.0324 22.9756 30.1019 22.8112 30.2014 22.6651C30.301 22.5191 30.4286 22.3942 30.5768 22.2979C30.725 22.2016 30.8909 22.1358 31.0649 22.1042C31.2388 22.0726 31.4172 22.0759 31.5899 22.1139C31.7625 22.1519 31.9259 22.2239 32.0704 22.3256C32.215 22.4273 32.3379 22.5567 32.432 22.7064C32.5261 22.8561 32.5895 23.0229 32.6184 23.1973C32.6474 23.3717 32.6415 23.5501 32.6009 23.7221C31.9476 27.231 30.0028 30.3675 27.1503 32.5127C26.9222 32.679 26.6472 32.7687 26.365 32.7687ZM2.01183 8.42091C1.76557 8.41982 1.52442 8.35054 1.31513 8.22076C1.10584 8.09098 0.936573 7.90578 0.82611 7.68568C0.715646 7.46558 0.668297 7.21919 0.689313 6.97382C0.710328 6.72846 0.798887 6.49371 0.94517 6.2956C3.11979 3.38974 6.32088 1.42274 9.89576 0.795646C10.2423 0.724922 10.6028 0.79476 10.8978 0.989796C11.1929 1.18483 11.3984 1.48909 11.4691 1.83564C11.5398 2.18218 11.47 2.54263 11.2749 2.83769C11.0799 3.13274 10.7756 3.33823 10.4291 3.40896C7.49308 3.89378 4.85878 5.49644 3.07848 7.88092C2.95499 8.04774 2.79425 8.18342 2.60907 8.27717C2.42389 8.37092 2.21938 8.42014 2.01183 8.42091Z" fill="black"/>
</svg>
