<svg width="32" height="32" viewBox="0 0 32 32" fill="none" xmlns="http://www.w3.org/2000/svg">
<g clip-path="url(#clip0_84_32601)">
<path d="M26.6667 0H5.33333C3.91885 0 2.56229 0.561903 1.5621 1.5621C0.561903 2.56229 0 3.91885 0 5.33333L0 21.3333C0 22.7478 0.561903 24.1044 1.5621 25.1046C2.56229 26.1048 3.91885 26.6667 5.33333 26.6667H9.2L15.1347 31.684C15.3754 31.8877 15.6806 31.9995 15.996 31.9995C16.3114 31.9995 16.6166 31.8877 16.8573 31.684L22.8 26.6667H26.6667C28.0812 26.6667 29.4377 26.1048 30.4379 25.1046C31.4381 24.1044 32 22.7478 32 21.3333V5.33333C32 3.91885 31.4381 2.56229 30.4379 1.5621C29.4377 0.561903 28.0812 0 26.6667 0V0ZM29.3333 21.3333C29.3333 22.0406 29.0524 22.7189 28.5523 23.219C28.0522 23.719 27.3739 24 26.6667 24H22.8C22.1697 24.0002 21.5599 24.2236 21.0787 24.6307L16 28.92L10.924 24.6307C10.4421 24.223 9.8312 23.9996 9.2 24H5.33333C4.62609 24 3.94781 23.719 3.44772 23.219C2.94762 22.7189 2.66667 22.0406 2.66667 21.3333V5.33333C2.66667 4.62609 2.94762 3.94781 3.44772 3.44772C3.94781 2.94762 4.62609 2.66667 5.33333 2.66667H26.6667C27.3739 2.66667 28.0522 2.94762 28.5523 3.44772C29.0524 3.94781 29.3333 4.62609 29.3333 5.33333V21.3333Z" fill="black"/>
<path d="M9.33333 9.33318H16C16.3536 9.33318 16.6928 9.1927 16.9428 8.94265C17.1929 8.69261 17.3333 8.35347 17.3333 7.99984C17.3333 7.64622 17.1929 7.30708 16.9428 7.05703C16.6928 6.80698 16.3536 6.6665 16 6.6665H9.33333C8.97971 6.6665 8.64057 6.80698 8.39052 7.05703C8.14048 7.30708 8 7.64622 8 7.99984C8 8.35347 8.14048 8.69261 8.39052 8.94265C8.64057 9.1927 8.97971 9.33318 9.33333 9.33318Z" fill="black"/>
<path d="M22.6667 12H9.33333C8.97971 12 8.64057 12.1405 8.39052 12.3905C8.14048 12.6406 8 12.9797 8 13.3333C8 13.687 8.14048 14.0261 8.39052 14.2761C8.64057 14.5262 8.97971 14.6667 9.33333 14.6667H22.6667C23.0203 14.6667 23.3594 14.5262 23.6095 14.2761C23.8595 14.0261 24 13.687 24 13.3333C24 12.9797 23.8595 12.6406 23.6095 12.3905C23.3594 12.1405 23.0203 12 22.6667 12Z" fill="black"/>
<path d="M22.6667 17.3335H9.33333C8.97971 17.3335 8.64057 17.474 8.39052 17.724C8.14048 17.9741 8 18.3132 8 18.6668C8 19.0205 8.14048 19.3596 8.39052 19.6096C8.64057 19.8597 8.97971 20.0002 9.33333 20.0002H22.6667C23.0203 20.0002 23.3594 19.8597 23.6095 19.6096C23.8595 19.3596 24 19.0205 24 18.6668C24 18.3132 23.8595 17.9741 23.6095 17.724C23.3594 17.474 23.0203 17.3335 22.6667 17.3335Z" fill="black"/>
</g>
<defs>
<clipPath id="clip0_84_32601">
<rect width="32" height="32" fill="white"/>
</clipPath>
</defs>
</svg>
