<svg width="19" height="10" viewBox="0 0 19 10" fill="none" xmlns="http://www.w3.org/2000/svg">
<path d="M17.915 3.42401L14.9177 0.395661C14.8457 0.323067 14.76 0.265448 14.6656 0.226127C14.5713 0.186806 14.47 0.166561 14.3678 0.166561C14.2655 0.166561 14.1643 0.186806 14.0699 0.226127C13.9755 0.265448 13.8899 0.323067 13.8179 0.395661C13.7453 0.467662 13.6877 0.553325 13.6483 0.647706C13.609 0.742088 13.5888 0.843319 13.5888 0.945565C13.5888 1.04781 13.609 1.14904 13.6483 1.24342C13.6877 1.33781 13.7453 1.42347 13.8179 1.49547L16.5751 4.26823L0.782835 4.26823C0.577421 4.26823 0.38042 4.34983 0.235172 4.49508C0.0899215 4.64033 0.00832323 4.83733 0.00832324 5.04274C0.00832326 5.24815 0.0899216 5.44515 0.235172 5.5904C0.38042 5.73565 0.577421 5.81725 0.782835 5.81725L16.6216 5.81725L13.8179 8.62099C13.6806 8.76503 13.604 8.9564 13.604 9.1554C13.604 9.35441 13.6806 9.54577 13.8179 9.68982C13.8899 9.76241 13.9755 9.82003 14.0699 9.85935C14.1643 9.89867 14.2655 9.91892 14.3678 9.91892C14.47 9.91892 14.5713 9.89867 14.6656 9.85935C14.76 9.82003 14.8457 9.76241 14.9177 9.68982L17.915 6.70794C18.3502 6.27228 18.5946 5.68171 18.5946 5.06597C18.5946 4.45023 18.3502 3.85967 17.915 3.42401Z" fill="black"/>
</svg>
