<svg width="28" height="29" viewBox="0 0 28 29" fill="none" xmlns="http://www.w3.org/2000/svg">
<circle cx="13.9724" cy="14.4661" r="13.9724" fill="#EBD6EB"/>
<path d="M10.9404 17.0487C9.65636 17.0487 8.91236 16.0647 8.91236 14.1207V13.6887C8.91236 11.7807 9.62036 10.7487 10.9164 10.7487C12.2004 10.7487 12.8964 11.8527 12.8964 13.6767V14.0967C12.8964 16.0407 12.2604 17.0487 10.9404 17.0487ZM10.9044 18.3207C13.1484 18.3207 14.4924 16.6767 14.4924 14.0967V13.6647C14.4924 11.0847 13.0764 9.50068 10.9044 9.50068C8.74436 9.50068 7.30436 11.0967 7.30436 13.7007V14.1327C7.30436 16.7127 8.72036 18.3207 10.9044 18.3207ZM17.3024 18.2007H18.9104V9.62068H17.4824L15.4904 11.0367V12.4407L17.3024 11.2047V18.2007Z" fill="#1F1F2D"/>
</svg>
