<svg width="13" height="9" viewBox="0 0 13 9" fill="none" xmlns="http://www.w3.org/2000/svg">
<path d="M11.216 1.12558L4.8828 7.02195C4.84022 7.06175 4.78961 7.09333 4.73389 7.11488C4.67817 7.13643 4.61843 7.14752 4.5581 7.14752C4.49776 7.14752 4.43802 7.13643 4.3823 7.11488C4.32658 7.09333 4.27597 7.06175 4.23339 7.02195L1.78427 4.73944C1.74169 4.69964 1.69109 4.66805 1.63537 4.6465C1.57965 4.62495 1.51991 4.61386 1.45957 4.61386C1.39924 4.61386 1.33949 4.62495 1.28377 4.6465C1.22805 4.66805 1.17745 4.69964 1.13487 4.73944C1.09212 4.77909 1.0582 4.8262 1.03506 4.87808C1.01191 4.92996 1 4.98559 1 5.04177C1 5.09795 1.01191 5.15357 1.03506 5.20545C1.0582 5.25734 1.09212 5.30445 1.13487 5.3441L3.58491 7.6249C3.84336 7.8651 4.19361 8 4.55878 8C4.92395 8 5.2742 7.8651 5.53266 7.6249L11.8654 1.72981C11.908 1.69017 11.9419 1.64308 11.965 1.59124C11.9881 1.5394 12 1.48382 12 1.42769C12 1.37157 11.9881 1.31599 11.965 1.26415C11.9419 1.2123 11.908 1.16522 11.8654 1.12558C11.8228 1.08578 11.7722 1.05419 11.7165 1.03264C11.6607 1.01109 11.601 1 11.5407 1C11.4803 1 11.4206 1.01109 11.3649 1.03264C11.3091 1.05419 11.2585 1.08578 11.216 1.12558Z" fill="white" stroke="#1F1F2D"/>
</svg>
