<svg width="28" height="28" viewBox="0 0 28 28" fill="none" xmlns="http://www.w3.org/2000/svg">
<path d="M24.6612 6.31125L16.7425 0.967222C15.8083 0.331908 14.7047 -0.0078125 13.575 -0.0078125C12.4453 -0.0078125 11.3417 0.331908 10.4075 0.967222L2.48875 6.31125C1.72194 6.82956 1.09403 7.52812 0.660112 8.34566C0.226197 9.1632 -0.000468811 10.0747 7.28003e-07 11.0003V21.4938C0.00179699 22.9933 0.598298 24.431 1.65866 25.4914C2.71902 26.5517 4.15667 27.1482 5.65625 27.15H21.4937C22.9933 27.1482 24.431 26.5517 25.4913 25.4914C26.5517 24.431 27.1482 22.9933 27.15 21.4938V11.0003C27.1505 10.0747 26.9238 9.1632 26.4899 8.34566C26.056 7.52812 25.428 6.82956 24.6612 6.31125ZM24.8875 21.4938C24.8875 22.3938 24.5299 23.2571 23.8935 23.8935C23.257 24.53 22.3938 24.8875 21.4937 24.8875H5.65625C4.75617 24.8875 3.89296 24.53 3.25651 23.8935C2.62005 23.2571 2.2625 22.3938 2.2625 21.4938V11.0003C2.26247 10.4447 2.39881 9.8977 2.65957 9.40716C2.92032 8.91662 3.2975 8.49759 3.75801 8.18686L11.6768 2.84284C12.2367 2.46242 12.898 2.25902 13.575 2.25902C14.2519 2.25902 14.9133 2.46242 15.4732 2.84284L23.392 8.18686C23.8525 8.49759 24.2297 8.91662 24.4904 9.40716C24.7512 9.8977 24.8875 10.4447 24.8875 11.0003V21.4938ZM13.575 7.92554C12.2313 7.92538 10.9179 8.32402 9.80097 9.07096C8.68406 9.8179 7.81398 10.8795 7.30093 12.1214C6.78789 13.3632 6.65497 14.7294 6.91901 16.0469C7.18305 17.3643 7.83217 18.5738 8.78415 19.522L10.8476 21.5401C11.5787 22.2482 12.5566 22.6441 13.5744 22.6441C14.5922 22.6441 15.5701 22.2482 16.3013 21.5401L18.3749 19.5129C19.3243 18.5637 19.9709 17.3542 20.2328 16.0374C20.4948 14.7207 20.3604 13.3558 19.8466 12.1155C19.3328 10.8751 18.4627 9.81499 17.3463 9.06918C16.23 8.32337 14.9176 7.92538 13.575 7.92554ZM16.7832 17.9043L14.7187 19.9236C14.4119 20.2207 14.0015 20.3868 13.5744 20.3868C13.1473 20.3868 12.737 20.2207 12.4302 19.9236L10.3747 17.9134C9.74227 17.2809 9.31146 16.4752 9.13668 15.598C8.9619 14.7209 9.05099 13.8116 9.39269 12.985C9.7344 12.1585 10.3134 11.4517 11.0565 10.954C11.7997 10.4563 12.6736 10.1901 13.5681 10.1888C14.4625 10.1875 15.3372 10.4514 16.0817 10.9469C16.8263 11.4425 17.4073 12.1476 17.7513 12.9732C18.0953 13.7988 18.187 14.7079 18.0147 15.5855C17.8424 16.4632 17.4138 17.2701 16.7832 17.9043ZM14.7062 14.7063C14.7062 14.93 14.6399 15.1487 14.5156 15.3347C14.3913 15.5208 14.2146 15.6658 14.0079 15.7514C13.8012 15.837 13.5737 15.8594 13.3543 15.8158C13.1349 15.7721 12.9333 15.6644 12.7751 15.5062C12.6169 15.348 12.5091 15.1464 12.4655 14.927C12.4218 14.7075 12.4442 14.4801 12.5299 14.2733C12.6155 14.0666 12.7605 13.89 12.9465 13.7657C13.1325 13.6414 13.3513 13.575 13.575 13.575C13.875 13.575 14.1628 13.6942 14.3749 13.9063C14.5871 14.1185 14.7062 14.4062 14.7062 14.7063Z" fill="#1F1F2D"/>
</svg>
