<svg width="33" height="33" viewBox="0 0 33 33" fill="none" xmlns="http://www.w3.org/2000/svg">
<path d="M31.0086 13.016L20.8892 2.89532C19.6368 1.64655 17.9403 0.945312 16.1717 0.945312C14.4031 0.945312 12.7066 1.64655 11.4542 2.89532L1.33483 13.016C0.961837 13.3866 0.66612 13.8276 0.464816 14.3133C0.263513 14.7991 0.160628 15.3199 0.162125 15.8457V28.9429C0.162125 30.0044 0.583805 31.0224 1.3344 31.773C2.08499 32.5236 3.10302 32.9453 4.16452 32.9453H28.1789C29.2404 32.9453 30.2584 32.5236 31.009 31.773C31.7596 31.0224 32.1813 30.0044 32.1813 28.9429V15.8457C32.1828 15.3199 32.0799 14.7991 31.8786 14.3133C31.6773 13.8276 31.3816 13.3866 31.0086 13.016ZM20.1741 30.277H12.1693V25.0286C12.1693 23.9671 12.591 22.949 13.3416 22.1984C14.0922 21.4479 15.1102 21.0262 16.1717 21.0262C17.2332 21.0262 18.2512 21.4479 19.0018 22.1984C19.7524 22.949 20.1741 23.9671 20.1741 25.0286V30.277ZM29.513 28.9429C29.513 29.2967 29.3724 29.6361 29.1222 29.8863C28.872 30.1365 28.5327 30.277 28.1789 30.277H22.8423V25.0286C22.8423 23.2594 22.1395 21.5627 20.8886 20.3117C19.6376 19.0607 17.9409 18.3579 16.1717 18.3579C14.4025 18.3579 12.7058 19.0607 11.4548 20.3117C10.2038 21.5627 9.50104 23.2594 9.50104 25.0286V30.277H4.16452C3.81068 30.277 3.47134 30.1365 3.22114 29.8863C2.97095 29.6361 2.83039 29.2967 2.83039 28.9429V15.8457C2.83162 15.4922 2.97206 15.1533 3.22129 14.9025L13.3407 4.78578C14.0927 4.03724 15.1106 3.617 16.1717 3.617C17.2328 3.617 18.2507 4.03724 19.0027 4.78578L29.1221 14.9065C29.3704 15.1563 29.5107 15.4936 29.513 15.8457V28.9429Z" fill="black"/>
</svg>
