<svg width="28" height="29" viewBox="0 0 28 29" fill="none" xmlns="http://www.w3.org/2000/svg">
<circle cx="13.9724" cy="14.0628" r="13.9724" fill="#FFD7A5"/>
<path d="M9.83784 16.6449C8.55384 16.6449 7.80984 15.6609 7.80984 13.7169V13.2849C7.80984 11.3769 8.51784 10.3449 9.81384 10.3449C11.0978 10.3449 11.7938 11.4489 11.7938 13.2729V13.6929C11.7938 15.6369 11.1578 16.6449 9.83784 16.6449ZM9.80184 17.9169C12.0458 17.9169 13.3898 16.2729 13.3898 13.6929V13.2609C13.3898 10.6809 11.9738 9.09687 9.80184 9.09687C7.64184 9.09687 6.20184 10.6929 6.20184 13.2969V13.7289C6.20184 16.3089 7.61784 17.9169 9.80184 17.9169ZM14.1839 17.7969H20.3879V16.5609H16.7399L18.6479 14.7009C19.6679 13.7169 20.3279 12.7449 20.3279 11.6289C20.3279 10.1169 19.2719 9.09687 17.4959 9.09687C15.6839 9.09687 14.5559 10.1769 14.4479 12.0489H15.9119C16.0559 10.8369 16.5959 10.3449 17.4479 10.3449C18.2759 10.3449 18.7319 10.8489 18.7319 11.6529C18.7319 12.4689 18.2399 13.2249 17.4239 14.0889L14.1839 17.5089V17.7969Z" fill="#1F1F2D"/>
</svg>
