<svg width="10" height="13" viewBox="0 0 10 13" fill="none" xmlns="http://www.w3.org/2000/svg">
<path d="M7.77579 13H2.22404C1.90283 12.9998 1.58545 12.932 1.29362 12.8011C1.0018 12.6702 0.742418 12.4794 0.533239 12.2417C0.327005 12.0091 0.174722 11.7359 0.0868106 11.4407C-0.00110069 11.1454 -0.0225645 10.8352 0.0238882 10.5311C0.322117 8.94698 1.18865 7.51805 2.46844 6.5C1.18864 5.48159 0.322281 4.05226 0.0244437 2.46783C-0.021918 2.16397 -0.000460237 1.85392 0.0873508 1.55888C0.175162 1.26385 0.327256 0.990777 0.533239 0.758333C0.742418 0.520621 1.0018 0.329791 1.29362 0.198905C1.58545 0.0680199 1.90283 0.000169998 2.22404 0L7.77579 0C8.09698 0.000277411 8.41433 0.0681753 8.70614 0.199053C8.99795 0.329931 9.25734 0.520704 9.46659 0.758333C9.6726 0.99068 9.82479 1.26363 9.91279 1.55855C10.0008 1.85347 10.0225 2.16343 9.9765 2.46729C9.67562 4.05218 8.80732 5.48135 7.52639 6.5C8.80658 7.51952 9.67389 8.94926 9.97372 10.5343C10.0198 10.8383 9.99808 11.1483 9.91008 11.4434C9.82208 11.7384 9.66987 12.0114 9.46381 12.2438C9.25466 12.4807 8.99562 12.6709 8.70434 12.8014C8.41305 12.9319 8.09634 12.9996 7.77579 13ZM7.77579 1.08333H2.22404C2.06292 1.08324 1.90368 1.11706 1.7572 1.1825C1.61072 1.24794 1.48045 1.34345 1.37531 1.4625C1.27263 1.57649 1.19676 1.71099 1.15301 1.85658C1.10925 2.00217 1.09868 2.15533 1.12202 2.30533C1.33087 3.6595 2.19071 4.927 3.6771 6.07371C3.74278 6.12442 3.79585 6.18896 3.83233 6.2625C3.8688 6.33605 3.88775 6.41668 3.88775 6.49837C3.88775 6.58007 3.8688 6.6607 3.83233 6.73425C3.79585 6.80779 3.74278 6.87233 3.6771 6.92304C2.19071 8.07083 1.33254 9.33942 1.12202 10.693C1.09842 10.8433 1.10887 10.9968 1.15263 11.1427C1.19639 11.2886 1.2724 11.4233 1.37531 11.5375C1.48045 11.6565 1.61072 11.7521 1.7572 11.8175C1.90368 11.8829 2.06292 11.9168 2.22404 11.9167H7.77579C7.93692 11.9168 8.09617 11.883 8.24266 11.8175C8.38914 11.7521 8.5194 11.6566 8.62453 11.5375C8.72717 11.4237 8.80304 11.2894 8.8468 11.144C8.89055 10.9986 8.90114 10.8456 8.87781 10.6958C8.67063 9.34863 7.81134 8.08004 6.32273 6.92467C6.25745 6.87393 6.20474 6.8095 6.16852 6.73617C6.13229 6.66284 6.11348 6.58248 6.11348 6.50108C6.11348 6.41968 6.13229 6.33933 6.16852 6.266C6.20474 6.19266 6.25745 6.12823 6.32273 6.0775C7.8119 4.92213 8.67118 3.65354 8.87781 2.30588C8.90106 2.15559 8.89018 2.00216 8.84593 1.85643C8.80168 1.71069 8.72515 1.57622 8.62175 1.4625C8.51693 1.34377 8.38712 1.24845 8.24114 1.18302C8.09516 1.11759 7.93645 1.08359 7.77579 1.08333ZM7.04315 10.8333H2.95335C2.86246 10.8333 2.77298 10.8115 2.69274 10.7699C2.6125 10.7283 2.54396 10.6681 2.49313 10.5946C2.4423 10.5211 2.41073 10.4366 2.4012 10.3485C2.39166 10.2604 2.40445 10.1713 2.43844 10.0891C2.87341 9.17318 3.53613 8.37776 4.36642 7.77508L4.65415 7.55192C4.75244 7.47568 4.87432 7.43417 4.99992 7.43417C5.12551 7.43417 5.24739 7.47568 5.34569 7.55192L5.62841 7.77183C6.45753 8.37688 7.12025 9.17258 7.5575 10.088C7.59171 10.1702 7.60468 10.2594 7.59529 10.3476C7.5859 10.4358 7.55442 10.5205 7.50363 10.5941C7.45283 10.6677 7.38428 10.728 7.30399 10.7697C7.2237 10.8114 7.13413 10.8333 7.04315 10.8333ZM3.90651 9.75H6.08833C5.7714 9.34717 5.40545 8.9834 4.99853 8.66667C4.5898 8.98216 4.22297 9.34607 3.90651 9.75Z" fill="#1F1F2D"/>
</svg>
