<svg width="28" height="28" viewBox="0 0 28 28" fill="none" xmlns="http://www.w3.org/2000/svg">
<g filter="url(#filter0_d_143_11684)">
<circle cx="14" cy="10" r="10" fill="white"/>
</g>
<path d="M18.2872 7.10764L12.5298 12.1617C12.4911 12.1958 12.4451 12.2229 12.3944 12.2413C12.3438 12.2598 12.2895 12.2693 12.2346 12.2693C12.1798 12.2693 12.1255 12.2598 12.0748 12.2413C12.0242 12.2229 11.9782 12.1958 11.9394 12.1617L9.71298 10.2052C9.67427 10.1711 9.62826 10.144 9.57761 10.1256C9.52695 10.1071 9.47264 10.0976 9.41779 10.0976C9.36294 10.0976 9.30863 10.1071 9.25798 10.1256C9.20732 10.144 9.16132 10.1711 9.12261 10.2052C9.08375 10.2392 9.05291 10.2796 9.03187 10.3241C9.01083 10.3685 9 10.4162 9 10.4644C9 10.5125 9.01083 10.5602 9.03187 10.6047C9.05291 10.6491 9.08375 10.6895 9.12261 10.7235L11.3499 12.6785C11.5849 12.8844 11.9033 13 12.2353 13C12.5672 13 12.8856 12.8844 13.1206 12.6785L18.8776 7.62555C18.9164 7.59157 18.9472 7.55121 18.9682 7.50678C18.9892 7.46234 19 7.4147 19 7.36659C19 7.31848 18.9892 7.27085 18.9682 7.22641C18.9472 7.18198 18.9164 7.14161 18.8776 7.10764C18.8389 7.07352 18.7929 7.04645 18.7422 7.02798C18.6916 7.00951 18.6373 7 18.5824 7C18.5276 7 18.4733 7.00951 18.4226 7.02798C18.3719 7.04645 18.3259 7.07352 18.2872 7.10764Z" fill="white" stroke="#1F1F2D"/>
<defs>
<filter id="filter0_d_143_11684" x="0" y="0" width="28" height="28" filterUnits="userSpaceOnUse" color-interpolation-filters="sRGB">
<feFlood flood-opacity="0" result="BackgroundImageFix"/>
<feColorMatrix in="SourceAlpha" type="matrix" values="0 0 0 0 0 0 0 0 0 0 0 0 0 0 0 0 0 0 127 0" result="hardAlpha"/>
<feOffset dy="4"/>
<feGaussianBlur stdDeviation="2"/>
<feComposite in2="hardAlpha" operator="out"/>
<feColorMatrix type="matrix" values="0 0 0 0 0.7375 0 0 0 0 0.7375 0 0 0 0 0.7375 0 0 0 0.25 0"/>
<feBlend mode="normal" in2="BackgroundImageFix" result="effect1_dropShadow_143_11684"/>
<feBlend mode="normal" in="SourceGraphic" in2="effect1_dropShadow_143_11684" result="shape"/>
</filter>
</defs>
</svg>
