<svg width="33" height="32" viewBox="0 0 33 32" fill="none" xmlns="http://www.w3.org/2000/svg">
<path d="M30.7142 14.6667H28.0475V12.0001C28.0475 11.6465 27.907 11.3073 27.657 11.0573C27.4069 10.8072 27.0678 10.6667 26.7142 10.6667C26.3606 10.6667 26.0214 10.8072 25.7714 11.0573C25.5213 11.3073 25.3809 11.6465 25.3809 12.0001V14.6667H22.7142C22.3606 14.6667 22.0214 14.8072 21.7714 15.0573C21.5213 15.3073 21.3809 15.6465 21.3809 16.0001C21.3809 16.3537 21.5213 16.6928 21.7714 16.9429C22.0214 17.1929 22.3606 17.3334 22.7142 17.3334H25.3809V20.0001C25.3809 20.3537 25.5213 20.6928 25.7714 20.9429C26.0214 21.1929 26.3606 21.3334 26.7142 21.3334C27.0678 21.3334 27.4069 21.1929 27.657 20.9429C27.907 20.6928 28.0475 20.3537 28.0475 20.0001V17.3334H30.7142C31.0678 17.3334 31.4069 17.1929 31.657 16.9429C31.907 16.6928 32.0475 16.3537 32.0475 16.0001C32.0475 15.6465 31.907 15.3073 31.657 15.0573C31.4069 14.8072 31.0678 14.6667 30.7142 14.6667Z" fill="black"/>
<path d="M12.0469 16C13.6291 16 15.1758 15.5308 16.4914 14.6518C17.807 13.7727 18.8324 12.5233 19.4379 11.0615C20.0434 9.59966 20.2018 7.99113 19.8932 6.43928C19.5845 4.88743 18.8226 3.46197 17.7037 2.34315C16.5849 1.22433 15.1594 0.462403 13.6076 0.153721C12.0557 -0.15496 10.4472 0.00346629 8.98541 0.608967C7.5236 1.21447 6.27417 2.23985 5.39512 3.55544C4.51607 4.87104 4.04688 6.41775 4.04688 8C4.04899 10.1211 4.89253 12.1547 6.39236 13.6545C7.89219 15.1544 9.92579 15.9979 12.0469 16ZM12.0469 2.66667C13.1017 2.66667 14.1329 2.97947 15.0099 3.5655C15.887 4.15153 16.5706 4.98449 16.9742 5.95903C17.3779 6.93357 17.4835 8.00592 17.2777 9.04049C17.0719 10.0751 16.564 11.0254 15.8181 11.7712C15.0722 12.5171 14.1219 13.0251 13.0874 13.2309C12.0528 13.4366 10.9804 13.331 10.0059 12.9274C9.03136 12.5237 8.1984 11.8401 7.61237 10.963C7.02634 10.086 6.71354 9.05484 6.71354 8C6.71354 6.58552 7.27544 5.22896 8.27564 4.22877C9.27583 3.22857 10.6324 2.66667 12.0469 2.66667Z" fill="black"/>
<path d="M12.0469 18.6667C8.86536 18.6703 5.81516 19.9357 3.56549 22.1854C1.31582 24.435 0.0504041 27.4852 0.046875 30.6668C0.046875 31.0204 0.187351 31.3595 0.437399 31.6096C0.687448 31.8596 1.02659 32.0001 1.38021 32.0001C1.73383 32.0001 2.07297 31.8596 2.32302 31.6096C2.57307 31.3595 2.71354 31.0204 2.71354 30.6668C2.71354 28.1914 3.69687 25.8174 5.44721 24.0671C7.19755 22.3167 9.57152 21.3334 12.0469 21.3334C14.5222 21.3334 16.8962 22.3167 18.6465 24.0671C20.3969 25.8174 21.3802 28.1914 21.3802 30.6668C21.3802 31.0204 21.5207 31.3595 21.7707 31.6096C22.0208 31.8596 22.3599 32.0001 22.7135 32.0001C23.0672 32.0001 23.4063 31.8596 23.6564 31.6096C23.9064 31.3595 24.0469 31.0204 24.0469 30.6668C24.0433 27.4852 22.7779 24.435 20.5283 22.1854C18.2786 19.9357 15.2284 18.6703 12.0469 18.6667Z" fill="black"/>
</svg>
