<svg width="10" height="12" viewBox="0 0 10 12" fill="none" xmlns="http://www.w3.org/2000/svg">
<path d="M1.66016 0.0844727H9.17578V0.100098C8.73307 0.782389 8.48307 1.14697 8.42578 1.19385H6.41797C6.69401 1.51676 6.88151 1.90999 6.98047 2.37354H9.12109C9.14714 2.37874 9.16016 2.38916 9.16016 2.40479C8.68099 3.12354 8.4362 3.48291 8.42578 3.48291H7.03516C7.00391 3.8527 6.82682 4.29801 6.50391 4.81885C6.07682 5.34489 5.66797 5.68604 5.27734 5.84229C4.54818 6.19124 3.85026 6.36572 3.18359 6.36572V6.38135C3.18359 6.43343 3.34766 6.64958 3.67578 7.02979L7.38672 11.5063V11.7173C7.38672 11.7381 7.3737 11.7485 7.34766 11.7485H5.71484C2.77734 8.32666 1.30859 6.60791 1.30859 6.59229V5.55322L1.32422 5.51416C1.58464 5.55062 1.88932 5.56885 2.23828 5.56885C3.88411 5.56885 4.90755 5.03499 5.30859 3.96729C5.37109 3.81104 5.40234 3.64958 5.40234 3.48291H0.933594C0.91276 3.48291 0.902344 3.47249 0.902344 3.45166C1.39714 2.73291 1.64974 2.37354 1.66016 2.37354H5.20703V2.35791C5.00391 1.94645 4.61068 1.62614 4.02734 1.39697C3.61068 1.26156 3.23568 1.19385 2.90234 1.19385H0.917969V1.15479C1.39714 0.441243 1.64453 0.0844727 1.66016 0.0844727Z" fill="#1F1F2D"/>
</svg>
