<svg width="33" height="33" viewBox="0 0 33 33" fill="none" xmlns="http://www.w3.org/2000/svg">
<g clip-path="url(#clip0_85_32612)">
<path d="M25.6204 6.10213H20.2871V4.7688C20.2871 3.70793 19.8657 2.69052 19.1155 1.94037C18.3654 1.19023 17.348 0.768799 16.2871 0.768799C15.2262 0.768799 14.2088 1.19023 13.4587 1.94037C12.7085 2.69052 12.2871 3.70793 12.2871 4.7688V6.10213H6.95378C5.18632 6.10425 3.49185 6.80731 2.24207 8.05709C0.992285 9.30688 0.289227 11.0013 0.287109 12.7688L0.287109 26.1021C0.289227 27.8696 0.992285 29.5641 2.24207 30.8138C3.49185 32.0636 5.18632 32.7667 6.95378 32.7688H25.6204C27.3879 32.7667 29.0824 32.0636 30.3322 30.8138C31.5819 29.5641 32.285 27.8696 32.2871 26.1021V12.7688C32.285 11.0013 31.5819 9.30688 30.3322 8.05709C29.0824 6.80731 27.3879 6.10425 25.6204 6.10213ZM14.9538 4.7688C14.9538 4.41518 15.0943 4.07604 15.3443 3.82599C15.5943 3.57594 15.9335 3.43547 16.2871 3.43547C16.6407 3.43547 16.9799 3.57594 17.2299 3.82599C17.48 4.07604 17.6204 4.41518 17.6204 4.7688V7.43547C17.6204 7.78909 17.48 8.12823 17.2299 8.37827C16.9799 8.62832 16.6407 8.7688 16.2871 8.7688C15.9335 8.7688 15.5943 8.62832 15.3443 8.37827C15.0943 8.12823 14.9538 7.78909 14.9538 7.43547V4.7688ZM29.6204 26.1021C29.6204 27.163 29.199 28.1804 28.4489 28.9306C27.6987 29.6807 26.6813 30.1021 25.6204 30.1021H6.95378C5.89291 30.1021 4.87549 29.6807 4.12535 28.9306C3.3752 28.1804 2.95378 27.163 2.95378 26.1021V12.7688C2.95378 11.7079 3.3752 10.6905 4.12535 9.94037C4.87549 9.19023 5.89291 8.7688 6.95378 8.7688H12.5324C12.804 9.54819 13.3113 10.2238 13.9841 10.7018C14.6569 11.1799 15.4618 11.4367 16.2871 11.4367C17.1124 11.4367 17.9173 11.1799 18.5901 10.7018C19.2629 10.2238 19.7702 9.54819 20.0418 8.7688H25.6204C26.6813 8.7688 27.6987 9.19023 28.4489 9.94037C29.199 10.6905 29.6204 11.7079 29.6204 12.7688V26.1021ZM13.6204 14.1021H6.95378C6.60015 14.1021 6.26102 14.2426 6.01097 14.4927C5.76092 14.7427 5.62044 15.0818 5.62044 15.4355V26.1021C5.62044 26.4558 5.76092 26.7949 6.01097 27.0449C6.26102 27.295 6.60015 27.4355 6.95378 27.4355H13.6204C13.9741 27.4355 14.3132 27.295 14.5633 27.0449C14.8133 26.7949 14.9538 26.4558 14.9538 26.1021V15.4355C14.9538 15.0818 14.8133 14.7427 14.5633 14.4927C14.3132 14.2426 13.9741 14.1021 13.6204 14.1021ZM12.2871 24.7688H8.28711V16.7688H12.2871V24.7688ZM26.9538 20.7688C26.9538 21.1224 26.8133 21.4616 26.5633 21.7116C26.3132 21.9617 25.9741 22.1021 25.6204 22.1021H18.9538C18.6002 22.1021 18.261 21.9617 18.011 21.7116C17.7609 21.4616 17.6204 21.1224 17.6204 20.7688C17.6204 20.4152 17.7609 20.076 18.011 19.826C18.261 19.5759 18.6002 19.4355 18.9538 19.4355H25.6204C25.9741 19.4355 26.3132 19.5759 26.5633 19.826C26.8133 20.076 26.9538 20.4152 26.9538 20.7688ZM26.9538 15.4355C26.9538 15.7891 26.8133 16.1282 26.5633 16.3783C26.3132 16.6283 25.9741 16.7688 25.6204 16.7688H18.9538C18.6002 16.7688 18.261 16.6283 18.011 16.3783C17.7609 16.1282 17.6204 15.7891 17.6204 15.4355C17.6204 15.0818 17.7609 14.7427 18.011 14.4927C18.261 14.2426 18.6002 14.1021 18.9538 14.1021H25.6204C25.9741 14.1021 26.3132 14.2426 26.5633 14.4927C26.8133 14.7427 26.9538 15.0818 26.9538 15.4355ZM24.2871 26.1021C24.2871 26.4558 24.1466 26.7949 23.8966 27.0449C23.6465 27.295 23.3074 27.4355 22.9538 27.4355H18.9538C18.6002 27.4355 18.261 27.295 18.011 27.0449C17.7609 26.7949 17.6204 26.4558 17.6204 26.1021C17.6204 25.7485 17.7609 25.4094 18.011 25.1593C18.261 24.9093 18.6002 24.7688 18.9538 24.7688H22.9538C23.3074 24.7688 23.6465 24.9093 23.8966 25.1593C24.1466 25.4094 24.2871 25.7485 24.2871 26.1021Z" fill="black"/>
</g>
<defs>
<clipPath id="clip0_85_32612">
<rect width="32" height="32" fill="white" transform="translate(0.537109 0.768799)"/>
</clipPath>
</defs>
</svg>
