<svg width="19" height="19" viewBox="0 0 19 19" fill="none" xmlns="http://www.w3.org/2000/svg">
<ellipse cx="9.5" cy="9.43418" rx="9.5" ry="9.43418" fill="white"/>
<path d="M13.7906 5.20937C13.6565 5.07531 13.4747 5 13.285 5C13.0954 5 12.9136 5.07531 12.7795 5.20937L9.5 8.48884L6.22053 5.20937C6.08643 5.07531 5.90457 5 5.71495 5C5.52533 5 5.34347 5.07531 5.20937 5.20937C5.07531 5.34347 5 5.52533 5 5.71495C5 5.90457 5.07531 6.08643 5.20937 6.22053L8.48884 9.5L5.20937 12.7795C5.07531 12.9136 5 13.0954 5 13.285C5 13.4747 5.07531 13.6565 5.20937 13.7906C5.34347 13.9247 5.52533 14 5.71495 14C5.90457 14 6.08643 13.9247 6.22053 13.7906L9.5 10.5112L12.7795 13.7906C12.9136 13.9247 13.0954 14 13.285 14C13.4747 14 13.6565 13.9247 13.7906 13.7906C13.9247 13.6565 14 13.4747 14 13.285C14 13.0954 13.9247 12.9136 13.7906 12.7795L10.5112 9.5L13.7906 6.22053C13.9247 6.08643 14 5.90457 14 5.71495C14 5.52533 13.9247 5.34347 13.7906 5.20937Z" fill="#E10A21"/>
</svg>
