<svg width="16" height="9" viewBox="0 0 16 9" fill="none" xmlns="http://www.w3.org/2000/svg">
<path d="M0.606432 6.18112L3.08323 8.68352C3.14273 8.74351 3.21351 8.79112 3.2915 8.82361C3.36949 8.8561 3.45314 8.87283 3.53763 8.87283C3.62212 8.87283 3.70577 8.8561 3.78376 8.82361C3.86175 8.79112 3.93253 8.74351 3.99203 8.68352C4.05201 8.62403 4.09963 8.55324 4.13212 8.47525C4.16461 8.39726 4.18134 8.31361 4.18134 8.22912C4.18134 8.14463 4.16461 8.06098 4.13212 7.98299C4.09963 7.905 4.05201 7.83422 3.99203 7.77472L1.71363 5.48352L14.7632 5.48352C14.933 5.48352 15.0957 5.41609 15.2158 5.29607C15.3358 5.17605 15.4032 5.01326 15.4032 4.84352C15.4032 4.67378 15.3358 4.511 15.2158 4.39097C15.0957 4.27095 14.933 4.20352 14.7632 4.20352L1.67523 4.20352L3.99203 1.88672C4.10549 1.7677 4.16879 1.60956 4.16879 1.44512C4.16879 1.28068 4.10549 1.12254 3.99203 1.00352C3.93253 0.943534 3.86175 0.895921 3.78376 0.863429C3.70577 0.830937 3.62212 0.814209 3.53763 0.814209C3.45314 0.814209 3.36949 0.830937 3.2915 0.863429C3.21351 0.895921 3.14273 0.943534 3.08323 1.00352L0.606432 3.46752C0.246879 3.82752 0.0449219 4.31552 0.0449219 4.82432C0.0449219 5.33312 0.246879 5.82112 0.606432 6.18112V6.18112Z" fill="black"/>
</svg>
