<svg width="172" height="16" viewBox="0 0 172 16" fill="none" xmlns="http://www.w3.org/2000/svg">
<path d="M5.27063 13.176C7.55863 13.176 8.99863 12.168 9.27063 10.36H7.07863C6.93463 11.064 6.40663 11.528 5.33463 11.528C4.07063 11.528 3.31863 10.728 3.25463 9.336H9.28663V8.696C9.28663 5.704 7.36663 4.44 5.20663 4.44C2.77463 4.44 0.902625 6.152 0.902625 8.792V8.92C0.902625 11.592 2.74262 13.176 5.27063 13.176ZM3.28663 7.912C3.46263 6.728 4.16663 6.04 5.20663 6.04C6.31063 6.04 6.95063 6.648 7.03063 7.912H3.28663ZM13.9413 13.176C15.1733 13.176 16.1973 12.456 16.6293 11.608V13H18.9333V0.839999H16.6293V5.88C16.1653 5.032 15.3333 4.44 13.9893 4.44C11.8932 4.44 10.3092 6.056 10.3092 8.808V8.936C10.3092 11.72 11.9093 13.176 13.9413 13.176ZM14.6293 11.368C13.4773 11.368 12.6773 10.552 12.6773 8.888V8.76C12.6773 7.096 13.3973 6.216 14.6933 6.216C15.9573 6.216 16.6933 7.064 16.6933 8.728V8.856C16.6933 10.552 15.8453 11.368 14.6293 11.368ZM23.7768 13.176C25.1528 13.176 26.0008 12.536 26.4328 11.688V13H28.7368V4.632H26.4328V9.544C26.4328 10.776 25.6648 11.384 24.6888 11.384C23.6968 11.384 23.2328 10.84 23.2328 9.704V4.632H20.9288V10.024C20.9288 12.216 22.1448 13.176 23.7768 13.176ZM33.0456 13H35.6536L38.6936 4.632H36.4536L34.4696 10.616L32.4696 4.632H29.9896L33.0456 13ZM41.9675 13.176C43.2795 13.176 44.0155 12.664 44.4955 11.992V13H46.7515V7.544C46.7515 5.272 45.2955 4.44 43.2475 4.44C41.1995 4.44 39.6315 5.32 39.4875 7.304H41.6795C41.7755 6.584 42.1915 6.12 43.1035 6.12C44.1595 6.12 44.4635 6.664 44.4635 7.656V7.992H43.5195C40.9595 7.992 39.1675 8.728 39.1675 10.68C39.1675 12.44 40.4475 13.176 41.9675 13.176ZM42.6555 11.56C41.8075 11.56 41.4395 11.16 41.4395 10.552C41.4395 9.656 42.2235 9.368 43.5675 9.368H44.4635V10.072C44.4635 11 43.6795 11.56 42.6555 11.56ZM48.7428 13H51.0628V8.168C51.0628 6.936 51.8148 6.328 52.8068 6.328C53.8308 6.328 54.2788 6.872 54.2788 8.008V13H56.5988V7.672C56.5988 5.432 55.4308 4.44 53.7828 4.44C52.3908 4.44 51.4788 5.128 51.0628 5.96V4.632H48.7428V13ZM57.7865 13H65.1145V11.208H61.1145L65.2745 4.92V4.632H58.2025V6.424H61.9145L57.7865 12.744V13ZM73.9046 15.368H75.5686V0.584H73.9046V15.368ZM85.3619 13H86.7539V8.344H88.6099C90.7859 8.344 92.6099 7.4 92.6099 4.968V4.904C92.6099 2.52 90.8019 1.56 88.6099 1.56H85.3619V13ZM86.7539 7.24V2.68H88.7059C90.2579 2.68 91.2179 3.288 91.2179 4.904V4.968C91.2179 6.44 90.3379 7.24 88.7059 7.24H86.7539ZM97.8164 12.04C96.1204 12.04 95.0804 10.792 95.0804 8.888V8.76C95.0804 6.84 96.1364 5.592 97.8164 5.592C99.4804 5.592 100.552 6.84 100.552 8.776V8.888C100.552 10.776 99.4964 12.04 97.8164 12.04ZM97.8004 13.144C100.184 13.144 101.928 11.4 101.928 8.872V8.744C101.928 6.232 100.184 4.488 97.8164 4.488C95.4484 4.488 93.7044 6.248 93.7044 8.76V8.888C93.7044 11.336 95.4164 13.144 97.8004 13.144ZM105.508 13H106.964L108.916 6.728L110.66 13H112.132L114.74 4.632H113.38L111.412 11.368L109.508 4.632H108.356L106.324 11.368L104.372 4.632H102.932L105.508 13ZM119.799 13.144C121.687 13.144 123.079 12.264 123.367 10.584H122.039C121.863 11.56 121.111 12.04 119.815 12.04C118.103 12.04 117.191 10.984 117.127 9.08H123.431V8.648C123.431 5.656 121.607 4.488 119.671 4.488C117.367 4.488 115.751 6.248 115.751 8.776V8.904C115.751 11.48 117.431 13.144 119.799 13.144ZM117.175 8.008C117.399 6.52 118.311 5.592 119.671 5.592C121.047 5.592 121.943 6.28 122.071 8.008H117.175ZM125.469 13H126.797V8.408C126.797 6.344 127.869 5.816 129.549 5.736V4.488C128.045 4.536 127.325 5.192 126.797 6.136V4.632H125.469V13ZM134.674 13.144C136.562 13.144 137.954 12.264 138.242 10.584H136.914C136.738 11.56 135.986 12.04 134.69 12.04C132.978 12.04 132.066 10.984 132.002 9.08H138.306V8.648C138.306 5.656 136.482 4.488 134.546 4.488C132.242 4.488 130.626 6.248 130.626 8.776V8.904C130.626 11.48 132.306 13.144 134.674 13.144ZM132.05 8.008C132.274 6.52 133.186 5.592 134.546 5.592C135.922 5.592 136.818 6.28 136.946 8.008H132.05ZM143.496 13.144C144.712 13.144 145.88 12.376 146.36 11.56V13H147.688V0.631999H146.36V5.976C145.88 5.16 145.016 4.488 143.624 4.488C141.32 4.488 139.72 6.296 139.72 8.856V8.984C139.72 11.592 141.304 13.144 143.496 13.144ZM143.64 12.04C142.232 12.04 141.096 11.032 141.096 8.92V8.792C141.096 6.76 142.088 5.592 143.752 5.592C145.384 5.592 146.408 6.6 146.408 8.744V8.872C146.408 11.016 145.192 12.04 143.64 12.04ZM158.77 13.144C161.074 13.144 162.578 11.384 162.578 8.824V8.696C162.578 6.088 160.962 4.488 158.77 4.488C157.554 4.488 156.418 5.224 155.938 6.04V0.631999H154.61V13H155.938V11.624C156.418 12.456 157.41 13.144 158.77 13.144ZM158.642 12.04C157.01 12.04 155.89 11.032 155.89 8.888V8.76C155.89 6.616 157.074 5.592 158.626 5.592C160.034 5.592 161.202 6.648 161.202 8.76V8.888C161.202 10.92 160.306 12.04 158.642 12.04ZM165.237 15.912H166.581L171.205 4.632H169.845L167.525 10.632L164.965 4.632H163.541L166.821 12.136L165.237 15.912Z" fill="black"/>
</svg>
